<svg width="24" height="25" viewBox="0 0 24 25" fill="none" xmlns="http://www.w3.org/2000/svg">
<path fill-rule="evenodd" clip-rule="evenodd" d="M7.77972 6.82262C7.38971 6.43159 6.75655 6.43076 6.36551 6.82077C5.97447 7.21078 5.97364 7.84395 6.36366 8.23498L10.6017 12.4841L6.34314 16.7426C5.95261 17.1332 5.95261 17.7663 6.34314 18.1569C6.73366 18.5474 7.36683 18.5474 7.75735 18.1569L12.014 13.9002L16.2502 18.1475C16.6402 18.5385 17.2734 18.5393 17.6644 18.1493C18.0554 17.7593 18.0563 17.1261 17.6662 16.7351L13.4282 12.486L17.6568 8.25736C18.0474 7.86684 18.0474 7.23367 17.6568 6.84315C17.2663 6.45262 16.6332 6.45262 16.2426 6.84315L12.0159 11.0699L7.77972 6.82262Z" fill="#161616"/>
</svg>
