<svg width="200" height="83" viewBox="0 0 200 83" fill="none" xmlns="http://www.w3.org/2000/svg">
<path fill-rule="evenodd" clip-rule="evenodd" d="M26.065 56.4108C23.2359 53.5733 19.0994 53.2353 15.729 55.4684L4.92308 62.6388C4.28984 63.0486 3.70767 63.53 3.17657 64.0627C-1.0416 68.2933 -1.0416 75.1462 3.17657 79.3665C7.39474 83.5971 14.2276 83.5971 18.4355 79.3665C18.9666 78.8339 19.4364 78.25 19.8552 77.6149L27.0046 66.7772C29.221 63.3969 28.8839 59.2482 26.065 56.4108Z" fill="#EA5A0B"/>
<path fill-rule="evenodd" clip-rule="evenodd" d="M31.7027 0C45.256 0 56.3478 11.1245 56.3478 24.7074C56.3478 38.3006 45.256 49.4148 31.7027 49.4148C27.4845 49.4148 24.6349 49.4148 20.4168 49.4148C17.7408 49.4148 15.4326 50.1421 13.1958 51.6377L6.80219 55.8785C6.1281 56.278 5.35187 56.5033 4.51436 56.5033C2.02227 56.5033 0 54.4751 0 51.9757V24.7177V4.53789C0 1.97701 2.07334 -0.0204927 4.6165 0.0102379C14.1048 -5.62671e-06 22.2246 0 31.7027 0Z" fill="white"/>
<path fill-rule="evenodd" clip-rule="evenodd" d="M178.991 13.6857H177.255C177.122 13.6857 177.01 13.573 177.01 13.4398V11.3194C177.01 11.1862 177.122 11.0736 177.255 11.0736H178.991V7.35516C178.991 7.22199 179.104 7.10931 179.236 7.10931H181.545C181.678 7.10931 181.79 7.22199 181.79 7.35516V11.0736H184.976C185.109 11.0736 185.222 11.1862 185.222 11.3194V13.4398C185.222 13.573 185.109 13.6857 184.976 13.6857H181.79V19.4528C181.79 22.3312 182.852 22.239 185.028 21.9317C185.354 21.8805 185.405 22.0546 185.416 22.2083C185.457 22.7922 185.538 23.4068 185.589 24.0009C185.61 24.216 185.569 24.3492 185.334 24.4414C184.558 24.7384 183.516 24.8306 182.597 24.7589C179.798 24.5336 178.991 22.4131 178.991 19.8932V13.6857ZM193.045 10.8789C189.205 10.8789 186.09 14.0032 186.09 17.8548C186.09 21.7064 189.205 24.8306 193.045 24.8306C196.885 24.8306 200.001 21.7064 200.001 17.8548C200.001 14.0032 196.885 10.8789 193.045 10.8789ZM193.045 13.7266C195.313 13.7266 197.161 15.5705 197.161 17.8548C197.161 20.1288 195.323 21.9829 193.045 21.9829C190.778 21.9829 188.929 20.1391 188.929 17.8548C188.929 15.5705 190.778 13.7266 193.045 13.7266ZM172.424 12.5691V11.217C172.424 11.0838 172.536 10.9711 172.669 10.9711H174.926C175.059 10.9711 175.172 11.0838 175.172 11.217V24.4721C175.172 24.6053 175.059 24.7179 174.926 24.7179H173.282C173.098 24.7179 173.006 24.6053 172.965 24.4824C172.802 24.0112 172.639 23.5604 172.465 23.0278C171.505 24.1955 169.932 24.8204 168.431 24.8614C164.355 24.974 161.7 21.5322 161.7 17.6499C161.7 13.9417 164.682 10.8482 168.4 10.8072C169.983 10.797 171.444 11.3809 172.424 12.5691ZM168.563 22.1571C170.872 22.1571 172.618 20.221 172.618 17.947C172.618 15.6627 170.892 13.7369 168.563 13.7369C166.214 13.7369 164.458 15.6319 164.458 17.947C164.458 20.2415 166.255 22.1571 168.563 22.1571ZM145.297 10.8789C141.457 10.8789 138.342 14.0032 138.342 17.8548C138.342 21.7064 141.457 24.8306 145.297 24.8306C149.137 24.8306 152.252 21.7064 152.252 17.8548C152.242 14.0032 149.137 10.8789 145.297 10.8789ZM145.297 13.7266C147.564 13.7266 149.413 15.5705 149.413 17.8548C149.413 20.1288 147.575 21.9829 145.297 21.9829C143.03 21.9829 141.181 20.1391 141.181 17.8548C141.181 15.5705 143.019 13.7266 145.297 13.7266ZM128.537 18.3362V24.4824C128.537 24.6155 128.424 24.7282 128.292 24.7282H125.748C125.616 24.7282 125.503 24.6155 125.503 24.4824V7.35516C125.503 7.22199 125.616 7.10931 125.748 7.10931H132.02C133.521 7.10931 134.869 7.69319 135.931 8.75852C136.993 9.87507 137.576 11.176 137.576 12.733C137.576 14.2388 137.045 15.5909 135.982 16.6563C134.869 17.7728 133.572 18.3465 132.02 18.3465H128.537V18.3362ZM128.537 10.1516V15.2836H132.009C132.683 15.2836 133.266 14.9968 133.797 14.5051C134.277 14.0237 134.573 13.3886 134.573 12.6613C134.573 11.9852 134.328 11.3501 133.797 10.8687C133.317 10.336 132.734 10.1414 132.009 10.1414H128.537V10.1516ZM109.366 19.3094C109.897 21.0508 111.398 22.0239 113.176 22.0239C114.35 22.0239 115.484 21.3888 116.332 20.6C116.434 20.5079 116.587 20.5078 116.679 20.6103L118.18 22.1571C118.272 22.2493 118.272 22.4029 118.19 22.4951C116.924 23.8575 114.932 24.7896 113.084 24.7896C108.498 24.7896 106.036 21.2044 106.373 16.8919C106.659 13.4091 109.56 10.9404 112.655 10.838C115.555 10.7458 117.772 12.6306 118.599 15.2017C118.987 16.4617 118.936 18.0084 118.742 19.3196H109.366V19.3094ZM109.223 16.687H116.219C115.831 14.8022 114.769 13.5422 112.747 13.5422C110.816 13.5422 109.611 14.8944 109.223 16.687ZM92.3299 7.34491C92.3299 7.21174 92.4423 7.09907 92.5751 7.09907H94.9752C95.108 7.09907 95.2203 7.21174 95.2203 7.34491V12.6101C96.3745 11.3911 97.7533 10.8482 99.224 10.8482C102.789 10.8482 104.494 13.3579 104.494 16.646V24.4824C104.494 24.6155 104.382 24.7282 104.249 24.7282H101.849C101.716 24.7282 101.604 24.6155 101.604 24.4824V16.646C101.604 14.7203 100.766 13.6139 98.8155 13.6959C96.6196 13.7778 95.1795 15.3246 95.1795 17.4758C95.1795 19.8113 95.1795 22.1571 95.1795 24.4926C95.1795 24.6258 95.0671 24.7384 94.9344 24.7384H92.5342C92.4014 24.7384 92.2891 24.6258 92.2891 24.4926C92.2789 18.7665 92.3299 13.0608 92.3299 7.34491ZM85.2724 10.1004V24.4721C85.2724 24.6053 85.16 24.7179 85.0273 24.7179H82.4841C82.3513 24.7179 82.239 24.6053 82.239 24.4721V10.1004H77.1731C77.0403 10.1004 76.928 9.98774 76.928 9.85457V7.29369C76.928 7.16052 77.0403 7.04785 77.1731 7.04785H90.3893C90.5221 7.04785 90.6345 7.16052 90.6345 7.29369V9.85457C90.6345 9.98774 90.5221 10.1004 90.3893 10.1004H85.2724ZM154.418 13.6857H152.681C152.549 13.6857 152.436 13.573 152.436 13.4398V11.3194C152.436 11.1862 152.549 11.0736 152.681 11.0736H154.418V7.35516C154.418 7.22199 154.53 7.10931 154.663 7.10931H156.971C157.104 7.10931 157.216 7.22199 157.216 7.35516V11.0736H160.393C160.525 11.0736 160.638 11.1862 160.638 11.3194V13.4398C160.638 13.573 160.525 13.6857 160.393 13.6857H157.216V19.4528C157.216 22.3312 158.278 22.239 160.454 21.9317C160.781 21.8805 160.832 22.0546 160.842 22.2083C160.883 22.7922 160.965 23.4068 161.016 24.0009C161.036 24.216 160.995 24.3492 160.76 24.4414C159.984 24.7384 158.942 24.8306 158.023 24.7589C155.225 24.5336 154.418 22.4131 154.418 19.8932V13.6857Z" fill="white"/>
<path fill-rule="evenodd" clip-rule="evenodd" d="M133.644 30.792C134.512 30.792 135.186 31.4681 135.186 32.3388C135.186 33.1583 134.512 33.8446 133.644 33.8446C132.826 33.8446 132.101 33.1685 132.101 32.3388C132.101 31.4681 132.826 30.792 133.644 30.792ZM144.123 35.5348C140.282 35.5348 137.167 38.659 137.167 42.5106C137.167 46.3622 140.282 49.4864 144.123 49.4864C147.963 49.4864 151.078 46.3622 151.078 42.5106C151.078 38.659 147.963 35.5348 144.123 35.5348ZM144.123 38.3825C146.39 38.3825 148.239 40.2263 148.239 42.5106C148.239 44.7847 146.4 46.6387 144.123 46.6387C141.855 46.6387 140.007 44.7949 140.007 42.5106C140.017 40.2263 141.855 38.3825 144.123 38.3825ZM132.244 49.1382V35.8318C132.244 35.6986 132.357 35.586 132.489 35.586H134.798C134.93 35.586 135.043 35.6986 135.043 35.8318V49.1382C135.043 49.2713 134.93 49.384 134.798 49.384H132.489C132.357 49.384 132.244 49.2713 132.244 49.1382ZM126.841 37.2249V32.0007C126.841 31.8676 126.954 31.7549 127.086 31.7549H129.344C129.476 31.7549 129.589 31.8676 129.589 32.0007V49.1279C129.589 49.2611 129.476 49.3738 129.344 49.3738H127.699C127.515 49.3738 127.424 49.2611 127.383 49.1382C127.219 48.667 127.056 48.2162 126.882 47.6836C125.922 48.8513 124.349 49.4762 122.848 49.5172C118.773 49.6299 116.117 46.188 116.117 42.3057C116.117 38.5976 119.1 35.504 122.817 35.463C124.39 35.4528 125.851 36.0367 126.841 37.2249ZM122.981 46.8129C125.289 46.8129 127.035 44.8769 127.035 42.6028C127.035 40.3185 125.309 38.3927 122.981 38.3927C120.632 38.3927 118.875 40.2877 118.875 42.6028C118.875 44.8973 120.662 46.8129 122.981 46.8129ZM111.48 47.5914C110.306 48.9231 108.866 49.5172 107.334 49.5172C103.769 49.5172 102.063 47.0075 102.063 43.7193V35.883C102.063 35.7499 102.176 35.6372 102.309 35.6372H104.709C104.842 35.6372 104.954 35.7499 104.954 35.883V43.7193C104.954 45.6451 105.791 46.7514 107.742 46.6695C109.938 46.5875 111.378 45.0408 111.378 42.8999C111.378 40.5643 111.378 38.2186 111.378 35.883C111.378 35.7499 111.491 35.6372 111.623 35.6372H114.023C114.156 35.6372 114.269 35.7499 114.269 35.883C114.269 40.298 114.218 44.7027 114.218 49.1177C114.218 49.3533 114.115 49.3943 113.911 49.3943H112.134C112.022 49.3943 111.93 49.3226 111.899 49.2099L111.48 47.5914ZM78.9912 47.4685C78.7563 47.3148 78.7767 47.0895 78.8993 46.9358L80.2475 45.2251C80.3904 45.051 80.5641 45.051 80.707 45.1534C82.0757 46.0241 83.189 46.7309 84.8231 46.7617C86.1202 46.7924 88.122 46.0958 88.1833 44.5593C88.265 42.8281 86.0385 42.4389 83.7813 41.6501C81.0441 40.7077 79.0933 39.2634 79.1955 36.3337C79.2976 33.4246 82.0552 31.4476 84.7924 31.3349C86.6819 31.2529 88.3978 32.0827 89.8992 33.1582C90.1035 33.3119 90.0524 33.486 89.94 33.6397L88.6838 35.4323C88.6123 35.5347 88.4693 35.5655 88.357 35.504C86.9679 34.705 85.7423 33.9265 84.0877 34.2543C82.9643 34.4797 82.0348 35.166 82.0552 36.4874C82.0961 38.3415 84.2001 38.8639 85.7525 39.3761C87.7646 40.0317 90.0831 40.9433 90.7878 42.9716C91.3393 44.5491 90.8695 46.4339 89.7562 47.6733C88.6123 48.9333 86.6207 49.6094 84.9354 49.6196C82.7702 49.6503 80.7683 48.6772 78.9912 47.4685ZM93.668 38.3415H91.9317C91.7989 38.3415 91.6865 38.2288 91.6865 38.0956V35.9752C91.6865 35.8421 91.7989 35.7294 91.9317 35.7294H93.668V32.011C93.668 31.8778 93.7803 31.7651 93.9131 31.7651H96.2213C96.3541 31.7651 96.4665 31.8778 96.4665 32.011V35.7294H99.6429C99.7756 35.7294 99.888 35.8421 99.888 35.9752V38.0956C99.888 38.2288 99.7756 38.3415 99.6429 38.3415H96.4665V44.1086C96.4665 46.9973 97.5287 46.8948 99.7041 46.5875C100.031 46.5363 100.082 46.7104 100.092 46.8641C100.133 47.448 100.215 48.0626 100.266 48.6567C100.286 48.8718 100.245 49.005 100.011 49.0972C99.2343 49.3943 98.1925 49.4865 97.2733 49.4147C94.4748 49.1894 93.668 47.069 93.668 44.5491V38.3415Z" fill="white"/>
</svg>
