<svg width="24" height="25" viewBox="0 0 24 25" fill="none" xmlns="http://www.w3.org/2000/svg">
<path fill-rule="evenodd" clip-rule="evenodd" d="M13.0303 5.50131C13.0311 4.94903 12.5839 4.50072 12.0316 4.5C11.4794 4.49928 11.0311 4.9464 11.0303 5.49869L11.0225 11.5H5C4.44772 11.5 4 11.9477 4 12.5C4 13.0523 4.44772 13.5 5 13.5H11.0198L11.012 19.4987C11.0113 20.051 11.4584 20.4993 12.0107 20.5C12.563 20.5007 13.0113 20.0536 13.012 19.5013L13.0198 13.5H19C19.5523 13.5 20 13.0523 20 12.5C20 11.9477 19.5523 11.5 19 11.5H13.0225L13.0303 5.50131Z" fill="#EA5A0B"/>
</svg>
