<svg width="172" height="43" viewBox="0 0 172 43" fill="none" xmlns="http://www.w3.org/2000/svg">
<path fill-rule="evenodd" clip-rule="evenodd" d="M36.7879 39.3395C35.2276 40.4442 33.1729 40.6097 31.5825 39.8918C31.5825 39.8918 31.1483 39.7264 30.7443 39.2836C30.3961 38.8688 21.6058 29.3994 21.6058 29.3994L21.5757 29.3714C24.2945 29.8421 27.2733 28.5999 28.8078 26.3346C30.3381 24.1811 30.2822 21.1163 28.8358 18.9628C27.1013 16.6158 23.7163 15.8443 20.8815 16.2032C15.9662 16.8651 12.4372 21.0346 11.339 25.3975C10.2106 30.3665 11.0209 35.0604 12.7854 39.4771C13.1895 40.4163 13.7397 41.3813 14.4059 42.2087C9.22844 40.0573 4.6592 36.0813 2.25852 30.7512C-0.402209 25.0085 -0.344188 17.7484 2.80872 11.9241C5.29536 7.4236 9.69052 3.25414 15.128 1.48748C20.8256 -0.747704 28.4897 -0.279202 34.0412 2.70177C40.779 5.9041 45.8705 13.8841 45.8984 21.0067C46.1305 28.3785 42.7176 35.0604 36.7879 39.3395Z" fill="#161616"/>
<path fill-rule="evenodd" clip-rule="evenodd" d="M18.5742 39.3327C16.3946 37.0823 14.6378 34.1631 15.9679 31.1246C17.1453 28.8034 18.1979 26.4338 18.7009 23.753C18.9002 26.553 20.6812 29.0419 21.5325 31.7226C21.8585 33.0155 21.8846 34.3549 21.3574 35.6944C20.7799 37.1549 19.8521 38.3994 18.7493 39.5246L18.5742 39.3327Z" fill="#161616"/>
<path fill-rule="evenodd" clip-rule="evenodd" d="M76.5918 42.6356L74.3203 42.7676L74.2207 42.6838V42.1328L74.1686 42.1216C73.9386 42.3547 73.6573 42.5426 73.3189 42.6912C72.9829 42.839 72.636 42.9123 72.2794 42.9123C71.9098 42.9123 71.5517 42.8363 71.2067 42.6869C70.8622 42.5384 70.56 42.3277 70.305 42.056C70.0465 41.7805 69.8381 41.4506 69.6876 41.0644C69.5364 40.677 69.46 40.2502 69.46 39.7845C69.46 39.3581 69.541 38.9545 69.703 38.5706C69.8678 38.1886 70.0908 37.8544 70.3775 37.5658C70.6457 37.2984 70.9745 37.0862 71.365 36.9256C71.7547 36.7659 72.1513 36.6868 72.5573 36.6868C72.8613 36.6868 73.1588 36.7215 73.4525 36.791C73.7449 36.862 73.9973 36.9496 74.2072 37.058V35.0072C74.2072 34.8389 74.1775 34.6857 74.1146 34.5495C74.054 34.4102 73.968 34.306 73.8576 34.235C73.7337 34.1594 73.569 34.105 73.3595 34.0695C73.1503 34.0367 72.9242 34.0132 72.6831 33.9962V33.625L75.3436 33.4884L75.442 33.5779V41.5297C75.442 41.6706 75.4713 41.789 75.5326 41.887C75.5905 41.9835 75.6789 42.0669 75.7939 42.134C75.8772 42.1838 75.9968 42.2116 76.1566 42.2235C76.3152 42.2347 76.4587 42.2444 76.5918 42.2486V42.6368V42.6356ZM171.247 42.6356L168.975 42.7676L168.876 42.6838V42.1328L168.825 42.1216C168.594 42.3547 168.313 42.5426 167.974 42.6912C167.639 42.839 167.292 42.9123 166.936 42.9123C166.566 42.9123 166.208 42.8363 165.862 42.6869C165.517 42.5384 165.216 42.3277 164.961 42.056C164.702 41.7805 164.494 41.4506 164.343 41.0644C164.192 40.677 164.116 40.2502 164.116 39.7845C164.116 39.3581 164.197 38.9545 164.359 38.5706C164.524 38.1886 164.747 37.8544 165.033 37.5658C165.301 37.2984 165.63 37.0862 166.02 36.9256C166.41 36.7659 166.807 36.6868 167.213 36.6868C167.517 36.6868 167.814 36.7215 168.108 36.791C168.401 36.862 168.653 36.9496 168.862 37.058V35.0072C168.862 34.8389 168.833 34.6857 168.77 34.5495C168.709 34.4102 168.624 34.306 168.513 34.235C168.39 34.1594 168.225 34.105 168.015 34.0695C167.805 34.0367 167.58 34.0132 167.339 33.9962V33.625L169.999 33.4884L170.098 33.5779V41.5297C170.098 41.6706 170.127 41.789 170.189 41.887C170.246 41.9835 170.334 42.0669 170.449 42.134C170.533 42.1838 170.652 42.2116 170.813 42.2235C170.97 42.2347 171.115 42.2444 171.247 42.2486V42.6356ZM163.037 41.3557C162.763 41.8272 162.399 42.2011 161.941 42.4797C161.483 42.7599 160.956 42.8988 160.363 42.8988C159.837 42.8988 159.38 42.815 158.986 42.648C158.591 42.4797 158.267 42.254 158.012 41.9658C157.757 41.6798 157.565 41.343 157.439 40.961C157.315 40.5782 157.252 40.1738 157.252 39.7478C157.252 39.3654 157.32 38.9896 157.453 38.6203C157.588 38.2507 157.784 37.9204 158.046 37.6248C158.296 37.3428 158.608 37.1143 158.979 36.9403C159.35 36.7671 159.768 36.6795 160.23 36.6795C160.706 36.6795 161.113 36.7466 161.452 36.8832C161.793 37.0183 162.068 37.2039 162.276 37.4388C162.48 37.663 162.63 37.9262 162.73 38.2291C162.829 38.5324 162.879 38.8615 162.879 39.215V39.6105H158.566C158.566 39.9963 158.608 40.3471 158.688 40.6619C158.77 40.978 158.898 41.2531 159.076 41.4946C159.247 41.7254 159.47 41.9071 159.747 42.041C160.024 42.1741 160.356 42.2413 160.739 42.2413C161.131 42.2413 161.47 42.1575 161.754 41.9924C162.035 41.8272 162.31 41.529 162.574 41.0983L163.037 41.3557ZM118.367 38.5694H117.911C117.819 38.1469 117.618 37.8043 117.311 37.5392C117.007 37.2733 116.633 37.141 116.194 37.141C115.832 37.141 115.548 37.2224 115.341 37.3856C115.134 37.5488 115.03 37.7468 115.03 37.9775C115.03 38.1569 115.064 38.3066 115.134 38.427C115.202 38.5447 115.303 38.6474 115.441 38.7303C115.574 38.8102 115.738 38.8854 115.939 38.9557C116.139 39.0247 116.388 39.1038 116.683 39.1914C116.974 39.2755 117.246 39.3739 117.503 39.4843C117.763 39.5962 117.974 39.7204 118.14 39.8555C118.321 39.9979 118.461 40.1634 118.558 40.3513C118.655 40.5392 118.702 40.768 118.702 41.0393C118.702 41.5857 118.477 42.031 118.026 42.3786C117.576 42.7255 116.989 42.8988 116.272 42.8988C115.894 42.8988 115.544 42.8378 115.226 42.7128C114.907 42.5905 114.679 42.4762 114.541 42.3721L114.411 42.7618H113.915L113.849 40.7106H114.305C114.34 40.8657 114.416 41.0474 114.53 41.2531C114.643 41.4618 114.782 41.6497 114.945 41.8172C115.117 41.9924 115.323 42.1386 115.562 42.2598C115.803 42.3786 116.072 42.4392 116.372 42.4392C116.795 42.4392 117.12 42.3516 117.349 42.1784C117.578 42.0047 117.693 41.7574 117.693 41.4325C117.693 41.2658 117.656 41.1234 117.584 41.0003C117.51 40.8776 117.404 40.7719 117.264 40.6797C117.117 40.5882 116.939 40.5064 116.727 40.4327C116.516 40.3598 116.281 40.2861 116.023 40.2151C115.815 40.1568 115.585 40.082 115.333 39.9836C115.077 39.886 114.861 39.7718 114.681 39.639C114.487 39.5005 114.33 39.3288 114.205 39.127C114.081 38.9221 114.021 38.684 114.021 38.4085C114.021 37.9262 114.219 37.5168 114.616 37.1811C115.012 36.8462 115.542 36.6795 116.207 36.6795C116.461 36.6795 116.723 36.71 116.989 36.7694C117.255 36.8303 117.472 36.9025 117.64 36.9858L117.792 36.6733H118.267L118.367 38.5694ZM112.763 41.3557C112.49 41.8272 112.125 42.2011 111.668 42.4797C111.21 42.7599 110.682 42.8988 110.09 42.8988C109.565 42.8988 109.107 42.815 108.712 42.648C108.318 42.4797 107.994 42.254 107.738 41.9658C107.484 41.6798 107.292 41.343 107.166 40.961C107.042 40.5782 106.979 40.1738 106.979 39.7478C106.979 39.3654 107.046 38.9896 107.18 38.6203C107.314 38.2507 107.51 37.9204 107.772 37.6248C108.023 37.3428 108.334 37.1143 108.705 36.9403C109.078 36.7671 109.495 36.6795 109.957 36.6795C110.433 36.6795 110.84 36.7466 111.179 36.8832C111.519 37.0183 111.794 37.2039 112.003 37.4388C112.206 37.663 112.358 37.9262 112.457 38.2291C112.556 38.5324 112.605 38.8615 112.605 39.215V39.6105H108.293C108.293 39.9963 108.334 40.3471 108.415 40.6619C108.496 40.978 108.624 41.2531 108.803 41.4946C108.974 41.7254 109.197 41.9071 109.474 42.041C109.752 42.1741 110.083 42.2413 110.467 42.2413C110.859 42.2413 111.197 42.1575 111.48 41.9924C111.763 41.8272 112.038 41.529 112.301 41.0983L112.763 41.3557ZM90.181 38.5694H89.7257C89.6331 38.1469 89.4325 37.8043 89.1261 37.5392C88.8221 37.2733 88.4478 37.141 88.0083 37.141C87.6471 37.141 87.3635 37.2224 87.1559 37.3856C86.9483 37.5488 86.8445 37.7468 86.8445 37.9775C86.8445 38.1569 86.8785 38.3066 86.9483 38.427C87.0166 38.5447 87.1177 38.6474 87.2551 38.7303C87.3882 38.8102 87.5526 38.8854 87.7532 38.9557C87.9539 39.0247 88.202 39.1038 88.4975 39.1914C88.7881 39.2755 89.0605 39.3739 89.3175 39.4843C89.5772 39.5962 89.789 39.7204 89.9557 39.8555C90.1355 39.9979 90.276 40.1634 90.3728 40.3513C90.4697 40.5392 90.5167 40.768 90.5167 41.0393C90.5167 41.5857 90.2918 42.031 89.8407 42.3786C89.3904 42.7255 88.8039 42.8988 88.0874 42.8988C87.7081 42.8988 87.3589 42.8378 87.0405 42.7128C86.721 42.5905 86.4934 42.4762 86.3552 42.3721L86.2256 42.7618H85.7298L85.6638 40.7106H86.1195C86.1554 40.8657 86.2295 41.0474 86.3444 41.2531C86.4571 41.4618 86.5972 41.6497 86.7592 41.8172C86.9309 41.9924 87.1382 42.1386 87.377 42.2598C87.6185 42.3786 87.8867 42.4392 88.1861 42.4392C88.6102 42.4392 88.9339 42.3516 89.1643 42.1784C89.3924 42.0047 89.5062 41.7574 89.5062 41.4325C89.5062 41.2658 89.4711 41.1234 89.3993 41.0003C89.3241 40.8776 89.2187 40.7719 89.0786 40.6797C88.9316 40.5882 88.7538 40.5064 88.5419 40.4327C88.3305 40.3598 88.0966 40.2861 87.8366 40.2151C87.629 40.1568 87.3994 40.082 87.1463 39.9836C86.8924 39.886 86.6759 39.7718 86.4957 39.639C86.302 39.5005 86.1434 39.3288 86.0199 39.127C85.8961 38.9221 85.8359 38.684 85.8359 38.4085C85.8359 37.9262 86.0338 37.5168 86.4305 37.1811C86.8268 36.8462 87.3566 36.6795 88.0218 36.6795C88.2764 36.6795 88.5373 36.71 88.8039 36.7694C89.0702 36.8303 89.2862 36.9025 89.4552 36.9858L89.6057 36.6733H90.0827L90.181 38.5694ZM82.274 41.9349C82.1683 42.0352 82.049 42.1429 81.9151 42.2559C81.7855 42.3701 81.6315 42.4724 81.4606 42.5642C81.2623 42.6719 81.0705 42.7541 80.8861 42.8089C80.7001 42.8656 80.4388 42.8922 80.1012 42.8922C79.5236 42.8922 79.0849 42.7232 78.7827 42.3829C78.4829 42.041 78.3313 41.5456 78.3313 40.8962V38.0732C78.3313 37.93 78.3008 37.81 78.2414 37.7124C78.1827 37.6144 78.0951 37.5287 77.9801 37.457C77.9007 37.4103 77.8023 37.3756 77.685 37.3536C77.565 37.3308 77.4388 37.3165 77.3084 37.308V36.9183L79.4792 36.7755L79.5788 36.8589V40.9552C79.5788 41.3827 79.6841 41.7026 79.8959 41.9191C80.1082 42.1328 80.3605 42.2413 80.6561 42.2413C80.8965 42.2413 81.1133 42.2061 81.302 42.1386C81.4911 42.0723 81.6497 41.9924 81.7778 41.9005C81.8974 41.8172 82.0008 41.7273 82.0915 41.6355C82.1822 41.5413 82.2516 41.4533 82.2987 41.3742V38.0311C82.2987 37.8999 82.2701 37.7838 82.2061 37.6819C82.1459 37.5793 82.0598 37.494 81.9499 37.4226C81.8708 37.3732 81.7539 37.3447 81.5957 37.3347C81.4402 37.3254 81.2646 37.3161 81.0705 37.308V36.9183L83.4351 36.7755L83.5342 36.8589V41.5413C83.5342 41.6779 83.5662 41.7925 83.6264 41.8886C83.6889 41.9843 83.7758 42.0657 83.8854 42.1328C83.9648 42.1784 84.0594 42.2062 84.1674 42.2212C84.2782 42.2324 84.3993 42.2436 84.5324 42.2474V42.6356L82.411 42.7676L82.3126 42.6838V41.9349H82.274ZM93.844 36.8712H95.7124V37.4454H93.8552V40.7414C93.8552 40.988 93.866 41.1944 93.8861 41.36C93.9042 41.5247 93.9521 41.6698 94.0285 41.7925C94.0979 41.909 94.204 41.9966 94.3441 42.0553C94.4857 42.1151 94.6752 42.1452 94.9125 42.1452C95.0224 42.1452 95.1845 42.1375 95.3963 42.1189C95.6109 42.1 95.7614 42.078 95.8501 42.0491V42.4863C95.563 42.5939 95.2925 42.6838 95.0383 42.7575C94.7809 42.8316 94.4703 42.8694 94.1006 42.8694C93.555 42.8694 93.1703 42.744 92.9488 42.494C92.7254 42.2455 92.6151 41.8944 92.6151 41.4391V37.4454H91.4386V36.8712H92.6398V35.0361H93.844V36.8712ZM154.272 36.8712H156.141V37.4454H154.284V40.7414C154.284 40.988 154.295 41.1944 154.315 41.36C154.334 41.5247 154.381 41.6698 154.458 41.7925C154.528 41.909 154.634 41.9966 154.773 42.0553C154.915 42.1151 155.104 42.1452 155.341 42.1452C155.452 42.1452 155.614 42.1375 155.826 42.1189C156.04 42.1 156.191 42.078 156.279 42.0491V42.4863C155.993 42.5939 155.723 42.6838 155.467 42.7575C155.211 42.8316 154.899 42.8694 154.53 42.8694C153.984 42.8694 153.599 42.744 153.378 42.494C153.155 42.2455 153.044 41.8944 153.044 41.4391V37.4454H151.867V36.8712H153.069V35.0361H154.272V36.8712ZM64.3326 42.744H61.1431V42.3493C61.2442 42.342 61.348 42.3327 61.4561 42.3246C61.5645 42.3173 61.6567 42.3003 61.7381 42.276C61.8597 42.2413 61.9527 42.1784 62.0101 42.0885C62.0719 41.9989 62.1008 41.882 62.1008 41.7396V38.0979C62.1008 37.9609 62.0692 37.8363 62.0036 37.724C61.9411 37.6098 61.8504 37.5168 61.7381 37.4454C61.6548 37.3979 61.5556 37.3628 61.4402 37.3408C61.3252 37.3185 61.201 37.3038 61.071 37.2957V36.9075L63.2368 36.7755L63.3298 36.8589V37.6897H63.3603C63.4664 37.5959 63.5995 37.4794 63.7581 37.347C63.9155 37.2139 64.066 37.1043 64.2061 37.0202C64.3701 36.9245 64.5642 36.8442 64.788 36.7813C65.0133 36.7184 65.2657 36.686 65.5473 36.686C66.1713 36.686 66.6362 36.8631 66.9376 37.2139C67.2401 37.5673 67.389 38.0373 67.389 38.6223V41.6899C67.389 41.8315 67.4161 41.9434 67.4701 42.029C67.5222 42.1151 67.6121 42.1826 67.7402 42.2289C67.8463 42.2702 67.9362 42.2961 68.0134 42.3126C68.0898 42.3292 68.1982 42.3416 68.3325 42.3493V42.744H65.1437V42.3493C65.2452 42.342 65.3575 42.3327 65.4771 42.3246C65.599 42.3173 65.6982 42.3003 65.7788 42.276C65.9016 42.2413 65.9934 42.1784 66.052 42.0885C66.113 41.9989 66.1427 41.882 66.1427 41.7396V38.7056C66.1427 38.2873 66.032 37.9655 65.8159 37.739C65.5967 37.5122 65.3312 37.3979 65.0202 37.3979C64.7853 37.3979 64.5707 37.4304 64.3774 37.4959C64.1856 37.5608 64.012 37.6426 63.8631 37.739C63.7195 37.8309 63.6018 37.9285 63.5169 38.035C63.4313 38.1407 63.3672 38.2248 63.3298 38.2873V41.6798C63.3298 41.8153 63.3583 41.9276 63.4216 42.0152C63.4822 42.1031 63.5748 42.1699 63.6987 42.217C63.7913 42.2575 63.8901 42.2868 63.9985 42.3069C64.1073 42.3265 64.2173 42.3416 64.3326 42.3493V42.744ZM138.892 42.744H135.729V42.3493C135.831 42.342 135.934 42.3327 136.042 42.3246C136.15 42.3173 136.243 42.3003 136.324 42.276C136.446 42.2413 136.538 42.1784 136.597 42.0885C136.658 41.9989 136.687 41.882 136.687 41.7396V38.0732C136.687 37.9451 136.655 37.8309 136.59 37.7282C136.527 37.6291 136.437 37.5415 136.324 37.4689C136.241 37.4226 136.137 37.3833 136.013 37.3536C135.889 37.3227 135.762 37.3038 135.63 37.2957V36.9075L137.809 36.7755L137.902 36.8589V37.7024H137.946C138.057 37.6021 138.193 37.4851 138.351 37.3489C138.509 37.2139 138.657 37.1043 138.793 37.0202C138.947 36.9245 139.139 36.8442 139.372 36.7813C139.602 36.7184 139.851 36.686 140.12 36.686C140.544 36.686 140.907 36.7898 141.211 36.9943C141.513 37.1996 141.731 37.4473 141.865 37.739C142.022 37.5978 142.162 37.4755 142.284 37.3713C142.403 37.2656 142.564 37.1533 142.761 37.0321C142.929 36.9284 143.127 36.8442 143.353 36.7813C143.58 36.7184 143.832 36.686 144.11 36.686C144.66 36.686 145.094 36.8485 145.417 37.1757C145.737 37.5044 145.899 38.0061 145.899 38.684V41.6798C145.899 41.8191 145.924 41.933 145.978 42.0229C146.03 42.1128 146.12 42.1826 146.249 42.2289C146.351 42.266 146.45 42.293 146.549 42.3103C146.648 42.3273 146.76 42.3416 146.882 42.3493V42.744H143.706V42.3493C143.808 42.342 143.909 42.3327 144.012 42.3246C144.117 42.3173 144.208 42.3003 144.288 42.276C144.412 42.2413 144.502 42.1784 144.561 42.0885C144.621 41.9989 144.651 41.882 144.651 41.7396V38.6964C144.651 38.2796 144.547 37.9609 144.338 37.7344C144.128 37.5102 143.866 37.3979 143.555 37.3979C143.339 37.3979 143.136 37.4284 142.947 37.4875C142.758 37.5465 142.584 37.631 142.426 37.739C142.297 37.8266 142.192 37.9204 142.106 38.0219C142.018 38.1249 141.955 38.2082 141.91 38.2773V41.6798C141.91 41.8191 141.937 41.933 141.989 42.0229C142.042 42.1128 142.133 42.1826 142.259 42.2289C142.361 42.266 142.453 42.293 142.534 42.3103C142.615 42.3273 142.721 42.3416 142.854 42.3493V42.744H139.744V42.3493C139.845 42.342 139.944 42.3327 140.039 42.3246C140.133 42.3173 140.219 42.3003 140.298 42.276C140.422 42.2413 140.512 42.1784 140.573 42.0885C140.632 41.9989 140.661 41.882 140.661 41.7396V38.6964C140.661 38.2796 140.557 37.9609 140.347 37.7344C140.138 37.5102 139.879 37.3979 139.566 37.3979C139.349 37.3979 139.148 37.4284 138.959 37.4898C138.77 37.5531 138.594 37.6364 138.436 37.7444C138.308 37.8324 138.202 37.93 138.114 38.0408C138.027 38.1511 137.958 38.2326 137.915 38.2873V41.6679C137.915 41.8029 137.944 41.9171 138.008 42.009C138.069 42.1008 138.16 42.1699 138.286 42.217C138.378 42.2575 138.472 42.2868 138.569 42.3069C138.666 42.3265 138.774 42.3416 138.892 42.3493V42.744ZM134.602 42.744H131.454V42.3493C131.555 42.342 131.659 42.3327 131.767 42.3246C131.876 42.3173 131.968 42.3003 132.047 42.276C132.17 42.2413 132.262 42.1784 132.321 42.0885C132.38 41.9989 132.411 41.882 132.411 41.7396V38.0979C132.411 37.9698 132.378 37.8533 132.314 37.7468C132.252 37.6406 132.161 37.5531 132.047 37.4813C131.963 37.4327 131.844 37.3914 131.683 37.3586C131.525 37.325 131.381 37.3038 131.248 37.2957V36.9075L133.548 36.7755L133.64 36.8589V41.6679C133.64 41.8064 133.669 41.9233 133.728 42.0152C133.786 42.1051 133.881 42.1741 134.009 42.217C134.107 42.254 134.201 42.2822 134.293 42.3045C134.386 42.3246 134.487 42.3416 134.602 42.3493V42.744ZM100.256 42.744H96.8229V42.3493C96.9243 42.342 97.0278 42.3327 97.1366 42.3246C97.2442 42.3173 97.3372 42.3003 97.4179 42.276C97.5402 42.2413 97.632 42.1784 97.6911 42.0885C97.7516 41.9989 97.7813 41.882 97.7813 41.7396V38.0979C97.7813 37.9733 97.7489 37.8533 97.6849 37.7325C97.6208 37.6121 97.5305 37.5168 97.4179 37.4454C97.3345 37.3979 97.2354 37.3628 97.12 37.3408C97.0061 37.3185 96.8819 37.3038 96.7511 37.2957V36.9075L98.9173 36.7755L99.0092 36.8589V37.6897H99.0408C99.3136 37.3671 99.618 37.1221 99.9537 36.955C100.288 36.7879 100.594 36.7038 100.872 36.7038C101.149 36.7038 101.374 36.7856 101.548 36.9488C101.721 37.112 101.809 37.3327 101.809 37.6063C101.809 37.81 101.753 37.9895 101.645 38.1492C101.534 38.3066 101.365 38.3834 101.135 38.3834C100.889 38.3834 100.7 38.3267 100.572 38.2102C100.441 38.096 100.376 37.9675 100.376 37.8286C100.376 37.741 100.385 37.6607 100.399 37.5901C100.414 37.5168 100.43 37.4454 100.441 37.3732C100.235 37.3732 99.9923 37.4485 99.7153 37.5997C99.4378 37.7525 99.2029 37.9675 99.0092 38.2468V41.6798C99.0092 41.8191 99.0389 41.933 99.0979 42.0194C99.1585 42.107 99.2511 42.1741 99.3792 42.217C99.4895 42.2575 99.6312 42.2868 99.8056 42.3069C99.9792 42.3265 100.13 42.3416 100.256 42.3493V42.744ZM59.8138 42.744H55.5914V42.3188C55.7114 42.3096 55.8819 42.2984 56.1076 42.2822C56.333 42.2675 56.4908 42.2436 56.583 42.2108C56.7269 42.1598 56.8327 42.0885 56.901 41.9989C56.9662 41.909 56.9982 41.784 56.9982 41.625V35.4771C56.9982 35.339 56.9754 35.2213 56.9257 35.1283C56.8782 35.0342 56.7632 34.9562 56.583 34.8914C56.4499 34.8443 56.2859 34.7996 56.0853 34.7567C55.8838 34.7162 55.7202 34.6911 55.5914 34.683V34.259H59.8138V34.683C59.6761 34.6865 59.514 34.7019 59.3238 34.7282C59.1347 34.7525 58.97 34.7876 58.828 34.8266C58.6617 34.8752 58.5486 34.9524 58.4926 35.0589C58.434 35.1669 58.407 35.2877 58.407 35.4181V41.5598C58.407 41.6899 58.4379 41.8064 58.5015 41.909C58.5644 42.0109 58.6752 42.0923 58.828 42.1514C58.9206 42.1845 59.0718 42.2185 59.2817 42.2559C59.4893 42.2945 59.6664 42.3146 59.8138 42.3188V42.744ZM151.13 42.744H147.981V42.3493C148.083 42.342 148.187 42.3327 148.295 42.3246C148.404 42.3173 148.496 42.3003 148.575 42.276C148.699 42.2413 148.791 42.1784 148.849 42.0885C148.908 41.9989 148.94 41.882 148.94 41.7396V38.0979C148.94 37.9698 148.906 37.8533 148.842 37.7468C148.779 37.6406 148.69 37.5531 148.575 37.4813C148.491 37.4327 148.372 37.3914 148.212 37.3586C148.054 37.325 147.91 37.3038 147.777 37.2957V36.9075L150.076 36.7755L150.168 36.8589V41.6679C150.168 41.8064 150.198 41.9233 150.256 42.0152C150.315 42.1051 150.41 42.1741 150.538 42.217C150.635 42.254 150.729 42.2822 150.822 42.3045C150.914 42.3246 151.016 42.3416 151.13 42.3493V42.744ZM105.852 42.744H102.703V42.3493C102.805 42.342 102.908 42.3327 103.017 42.3246C103.126 42.3173 103.217 42.3003 103.296 42.276C103.421 42.2413 103.513 42.1784 103.571 42.0885C103.63 41.9989 103.661 41.882 103.661 41.7396V38.0979C103.661 37.9698 103.628 37.8533 103.565 37.7468C103.501 37.6406 103.411 37.5531 103.296 37.4813C103.213 37.4327 103.093 37.3914 102.934 37.3586C102.776 37.325 102.632 37.3038 102.498 37.2957V36.9075L104.798 36.7755L104.89 36.8589V41.6679C104.89 41.8064 104.92 41.9233 104.977 42.0152C105.037 42.1051 105.131 42.1741 105.259 42.217C105.357 42.254 105.451 42.2822 105.543 42.3045C105.636 42.3246 105.737 42.3416 105.852 42.3493V42.744ZM130.446 42.744H123.123V42.3188C123.228 42.3096 123.382 42.2961 123.582 42.276C123.783 42.2575 123.923 42.2305 124.002 42.1988C124.133 42.1471 124.229 42.0723 124.288 41.9719C124.349 41.8716 124.378 41.7458 124.378 41.5899V35.5142C124.378 35.3787 124.354 35.2591 124.301 35.1549C124.252 35.0504 124.151 34.967 124.002 34.9041C123.9 34.8567 123.758 34.81 123.575 34.7625C123.393 34.7181 123.242 34.6911 123.123 34.683V34.259H127.078V34.683C126.955 34.6865 126.797 34.7058 126.601 34.7424C126.404 34.7791 126.262 34.81 126.175 34.8381C126.024 34.8856 125.923 34.967 125.866 35.0835C125.812 35.1993 125.784 35.322 125.784 35.4548V41.1535C125.784 41.4163 125.798 41.6208 125.828 41.7659C125.856 41.9114 125.923 42.0229 126.028 42.1051C126.13 42.1764 126.281 42.2227 126.481 42.2436C126.682 42.266 126.961 42.276 127.322 42.276C127.486 42.276 127.655 42.2744 127.832 42.2667C128.008 42.2575 128.174 42.242 128.335 42.2177C128.487 42.1934 128.63 42.1606 128.76 42.1197C128.889 42.0765 128.985 42.0236 129.046 41.96C129.227 41.7767 129.436 41.4989 129.677 41.1277C129.917 40.7545 130.084 40.4524 130.176 40.2217H130.644V40.2209V40.2217L130.446 42.744ZM171.247 42.6356V42.6368V42.6356ZM74.2072 41.6V38.1511C74.1732 38.0473 74.1146 37.9362 74.0359 37.8166C73.9568 37.6958 73.8576 37.5878 73.738 37.4875C73.6118 37.3875 73.4609 37.3038 73.2892 37.239C73.1183 37.1738 72.9177 37.141 72.69 37.141C72.4241 37.141 72.1803 37.2019 71.9599 37.3266C71.7369 37.4485 71.5409 37.6268 71.37 37.8579C71.2044 38.0817 71.0759 38.3653 70.9814 38.7099C70.8873 39.0552 70.8394 39.4364 70.8394 39.8555C70.8394 40.19 70.8761 40.4945 70.9455 40.768C71.0154 41.0416 71.1346 41.2951 71.3017 41.529C71.4572 41.7539 71.6532 41.933 71.8947 42.068C72.1332 42.2027 72.4172 42.2721 72.749 42.2721C73.1002 42.2721 73.3934 42.2011 73.6234 42.0615C73.8557 41.9233 74.0498 41.7682 74.2072 41.6ZM168.862 41.6V38.1511C168.829 38.0473 168.77 37.9362 168.691 37.8166C168.612 37.6958 168.513 37.5878 168.394 37.4875C168.268 37.3875 168.116 37.3038 167.945 37.239C167.774 37.1738 167.573 37.141 167.345 37.141C167.079 37.141 166.836 37.2019 166.616 37.3266C166.392 37.4485 166.196 37.6268 166.025 37.8579C165.86 38.0817 165.732 38.3653 165.637 38.7099C165.543 39.0552 165.494 39.4364 165.494 39.8555C165.494 40.19 165.531 40.4945 165.601 40.768C165.67 41.0416 165.79 41.2951 165.957 41.529C166.113 41.7539 166.309 41.933 166.55 42.068C166.789 42.2027 167.073 42.2721 167.404 42.2721C167.755 42.2721 168.049 42.2011 168.279 42.0615C168.511 41.9233 168.705 41.7682 168.862 41.6ZM111.304 39.1081C111.304 38.8843 111.284 38.645 111.242 38.39C111.198 38.1349 111.134 37.9223 111.041 37.7502C110.94 37.5673 110.8 37.4184 110.624 37.3015C110.449 37.1853 110.221 37.1282 109.943 37.1282C109.481 37.1282 109.097 37.3015 108.792 37.6511C108.486 37.9995 108.32 38.4861 108.293 39.1081H111.304ZM161.578 39.1081C161.578 38.8843 161.558 38.645 161.515 38.39C161.472 38.1349 161.406 37.9223 161.314 37.7502C161.213 37.5673 161.073 37.4184 160.897 37.3015C160.721 37.1853 160.494 37.1282 160.217 37.1282C159.754 37.1282 159.371 37.3015 159.064 37.6511C158.758 37.9995 158.594 38.4861 158.566 39.1081H161.578ZM133.771 34.4507C133.771 34.6765 133.69 34.8752 133.522 35.0442C133.358 35.2136 133.155 35.2996 132.912 35.2996C132.688 35.2996 132.492 35.2178 132.328 35.0569C132.163 34.8956 132.08 34.7097 132.08 34.5032C132.08 34.2837 132.163 34.0934 132.328 33.9306C132.492 33.7666 132.688 33.6848 132.912 33.6848C133.164 33.6848 133.369 33.7608 133.529 33.914C133.69 34.0687 133.771 34.2462 133.771 34.4507ZM150.299 34.4507C150.299 34.6765 150.219 34.8752 150.05 35.0442C149.887 35.2136 149.684 35.2996 149.44 35.2996C149.217 35.2996 149.021 35.2178 148.857 35.0569C148.692 34.8956 148.609 34.7097 148.609 34.5032C148.609 34.2837 148.692 34.0934 148.857 33.9306C149.021 33.7666 149.217 33.6848 149.44 33.6848C149.693 33.6848 149.898 33.7608 150.058 33.914C150.219 34.0687 150.299 34.2462 150.299 34.4507ZM105.021 34.4507C105.021 34.6765 104.94 34.8752 104.773 35.0442C104.608 35.2136 104.405 35.2996 104.162 35.2996C103.939 35.2996 103.743 35.2178 103.578 35.0569C103.414 34.8956 103.33 34.7097 103.33 34.5032C103.33 34.2837 103.414 34.0934 103.578 33.9306C103.743 33.7666 103.939 33.6848 104.162 33.6848C104.414 33.6848 104.62 33.7608 104.779 33.914C104.94 34.0687 105.021 34.2462 105.021 34.4507ZM150.729 24.9794C148.56 24.9794 146.864 24.291 145.635 22.9189C144.41 21.5476 143.798 19.7047 143.798 17.3915C143.798 16.3867 143.965 15.446 144.291 14.5689C144.624 13.6926 145.1 12.9 145.728 12.1816C146.325 11.4978 147.077 10.943 147.979 10.5224C148.877 10.101 149.862 9.88918 150.926 9.88918C152.394 9.88918 153.593 10.2256 154.511 10.899C155.435 11.5723 155.897 12.4891 155.897 13.6478C155.897 14.1329 155.777 14.5585 155.533 14.9308C155.29 15.3063 154.889 15.4907 154.329 15.4907C153.733 15.4907 153.271 15.346 152.939 15.0539C152.612 14.7672 152.447 14.44 152.447 14.0831C152.447 13.6478 152.509 13.2018 152.628 12.7411C152.753 12.2811 152.82 11.9447 152.84 11.7309C152.659 11.4338 152.389 11.2312 152.027 11.1316C151.669 11.0275 151.279 10.9781 150.863 10.9781C150.382 10.9781 149.915 11.0772 149.474 11.2756C149.033 11.4735 148.607 11.8405 148.192 12.3699C147.814 12.8557 147.513 13.5093 147.279 14.3308C147.046 15.1535 146.926 16.1336 146.926 17.2734C146.926 19.0757 147.346 20.5416 148.182 21.6807C149.017 22.8155 150.118 23.385 151.471 23.385C152.457 23.385 153.281 23.1566 153.946 22.7017C154.605 22.2456 155.221 21.5665 155.788 20.6555L156.763 21.2651C156.094 22.4088 155.212 23.3109 154.117 23.9793C153.022 24.648 151.891 24.9794 150.729 24.9794ZM90.3454 21.2354C89.718 22.3799 88.8768 23.2863 87.825 23.9646C86.7708 24.6426 85.5573 24.9794 84.1925 24.9794C82.9832 24.9794 81.9306 24.7761 81.023 24.3701C80.1147 23.9646 79.3673 23.4144 78.782 22.7163C78.1955 22.0222 77.754 21.2053 77.4642 20.2792C77.1779 19.3482 77.034 18.3677 77.034 17.3324C77.034 16.4064 77.1891 15.4953 77.4947 14.5982C77.8057 13.7022 78.258 12.9 78.8599 12.1816C79.4356 11.4978 80.151 10.943 81.0072 10.5224C81.8631 10.101 82.8235 9.88918 83.8873 9.88918C84.9812 9.88918 85.92 10.052 86.6987 10.3842C87.4816 10.7103 88.1155 11.1614 88.5983 11.7309C89.064 12.2761 89.4113 12.9147 89.6401 13.6478C89.8685 14.3856 89.9827 15.1832 89.9827 16.0398V17.001H80.058C80.058 17.9367 80.151 18.789 80.3374 19.5507C80.5237 20.319 80.8205 20.9873 81.2299 21.5723C81.6246 22.1318 82.1382 22.5724 82.7768 22.8996C83.4146 23.221 84.1774 23.385 85.0595 23.385C85.9613 23.385 86.7403 23.1813 87.3928 22.7808C88.0426 22.3799 88.6747 21.6564 89.282 20.6107L90.3454 21.2354ZM171.247 21.2354C170.62 22.3799 169.78 23.2863 168.727 23.9646C167.673 24.6426 166.459 24.9794 165.095 24.9794C163.886 24.9794 162.833 24.7761 161.925 24.3701C161.017 23.9646 160.27 23.4144 159.683 22.7163C159.098 22.0222 158.657 21.2053 158.366 20.2792C158.081 19.3482 157.935 18.3677 157.935 17.3324C157.935 16.4064 158.091 15.4953 158.397 14.5982C158.708 13.7022 159.161 12.9 159.761 12.1816C160.338 11.4978 161.053 10.943 161.909 10.5224C162.766 10.101 163.726 9.88918 164.789 9.88918C165.884 9.88918 166.822 10.052 167.6 10.3842C168.384 10.7103 169.017 11.1614 169.499 11.7309C169.966 12.2761 170.314 12.9147 170.542 13.6478C170.771 14.3856 170.885 15.1832 170.885 16.0398V17.001H160.959C160.959 17.9367 161.053 18.789 161.24 19.5507C161.426 20.319 161.723 20.9873 162.133 21.5723C162.528 22.1318 163.041 22.5724 163.678 22.8996C164.316 23.221 165.079 23.385 165.961 23.385C166.865 23.385 167.642 23.1813 168.296 22.7808C168.944 22.3799 169.578 21.6564 170.185 20.6107L171.247 21.2354ZM118.553 22.8201C117.894 23.5131 117.189 24.0479 116.431 24.4149C115.678 24.7811 114.77 24.9647 113.707 24.9647C112.582 24.9647 111.658 24.6371 110.932 23.9793C110.205 23.3202 109.842 22.459 109.842 21.3986C109.842 20.8441 109.926 20.3537 110.086 19.9181C110.252 19.4824 110.491 19.0904 110.818 18.7393C111.072 18.4518 111.403 18.1944 111.819 17.966C112.234 17.7391 112.628 17.5555 112.992 17.4212C113.448 17.2587 114.371 16.9512 115.762 16.5051C117.158 16.0591 118.097 15.7134 118.584 15.4606V14.0241C118.584 13.9002 118.558 13.6575 118.501 13.3013C118.444 12.9448 118.325 12.6025 118.143 12.2858C117.941 11.9246 117.655 11.6124 117.282 11.35C116.914 11.0815 116.389 10.9487 115.71 10.9487C115.243 10.9487 114.812 11.0224 114.413 11.176C114.013 11.3253 113.728 11.4828 113.568 11.6472C113.568 11.8405 113.614 12.1218 113.714 12.5034C113.81 12.8796 113.858 13.2265 113.858 13.5491C113.858 13.8851 113.697 14.1927 113.381 14.4747C113.059 14.7576 112.618 14.8961 112.047 14.8961C111.544 14.8961 111.171 14.7228 110.932 14.381C110.693 14.0387 110.574 13.6525 110.574 13.2265C110.574 12.7804 110.74 12.3552 111.067 11.9489C111.399 11.5434 111.824 11.181 112.354 10.8642C112.81 10.5918 113.359 10.3642 114.008 10.1709C114.657 9.98255 115.29 9.88918 115.908 9.88918C116.758 9.88918 117.5 9.9486 118.139 10.0566C118.771 10.1662 119.342 10.4085 119.86 10.7755C120.379 11.1316 120.768 11.6167 121.038 12.2306C121.308 12.846 121.443 13.6382 121.443 14.6032C121.443 15.99 121.427 17.2144 121.396 18.2832C121.365 19.3536 121.35 20.5219 121.35 21.7899C121.35 22.1665 121.416 22.4636 121.557 22.6859C121.692 22.9093 121.904 23.0976 122.185 23.2558C122.34 23.3399 122.579 23.39 122.905 23.3997C123.238 23.409 123.575 23.4144 123.917 23.4144V24.3404C123.44 24.5036 123.025 24.6372 122.667 24.7413C122.304 24.8409 121.9 24.8949 121.443 24.8949C120.649 24.8949 120.022 24.7166 119.549 24.3655C119.077 24.009 118.776 23.4935 118.646 22.8201H118.553ZM107.887 24.6028H100.701V23.6547C100.933 23.6358 101.168 23.6162 101.415 23.5961C101.663 23.5768 101.873 23.5378 102.054 23.478C102.337 23.3951 102.548 23.2427 102.681 23.0266C102.815 22.8105 102.888 22.5304 102.888 22.1866V13.4252C102.888 13.1165 102.81 12.836 102.666 12.5806C102.522 12.3255 102.316 12.114 102.054 11.9423C101.864 11.8247 101.591 11.7263 101.226 11.6479C100.865 11.5642 100.536 11.5152 100.233 11.4951V10.5625L105.48 10.243L105.691 10.4448V22.0148C105.691 22.3494 105.757 22.6284 105.891 22.8498C106.025 23.0663 106.242 23.2322 106.535 23.336C106.755 23.4248 106.972 23.4931 107.183 23.5467C107.394 23.5961 107.625 23.6362 107.887 23.6547V24.6028ZM64.7065 24.6028H55.5856V23.5729C55.8294 23.5525 56.1829 23.5189 56.6444 23.4691C57.1059 23.4248 57.4273 23.36 57.609 23.2808C57.9108 23.1566 58.133 22.9737 58.2681 22.7314C58.4074 22.4879 58.4757 22.1815 58.4757 21.8053V6.91689C58.4757 6.57502 58.424 6.27829 58.3194 6.01591C58.2218 5.75314 57.9825 5.5548 57.609 5.42091C57.3551 5.33178 57.0237 5.25345 56.6185 5.18322C56.213 5.10914 55.8715 5.06476 55.5856 5.0447V4.01445H65.5419C66.4549 4.01445 67.3103 4.10436 68.1098 4.28224C68.9078 4.4605 69.6351 4.74758 70.2842 5.14348C70.9112 5.53049 71.4151 6.03597 71.7882 6.65952C72.1621 7.28384 72.3535 8.03627 72.3535 8.91835C72.3535 9.71091 72.2243 10.4143 71.9696 11.0224C71.7149 11.6321 71.3418 12.1573 70.8491 12.6025C70.3926 13.0181 69.842 13.3808 69.2045 13.6826C68.5667 13.9897 67.8606 14.2475 67.0935 14.4597C68.1565 15.8067 69.0382 16.9365 69.7443 17.858C70.4497 18.7736 71.3102 19.893 72.3377 21.2053C72.7838 21.7899 73.1831 22.2155 73.5474 22.4929C73.9051 22.7653 74.2624 22.9942 74.6158 23.1666C74.8801 23.2909 75.2066 23.39 75.6059 23.4587C76.0003 23.5236 76.3279 23.5633 76.5918 23.5729V24.6028H70.7865C69.5005 22.6766 68.3386 21.0124 67.2949 19.6105C66.2573 18.2091 65.1321 16.7625 63.9175 15.2727H61.7126V21.8053C61.7126 22.1422 61.7698 22.4389 61.879 22.6967C61.9878 22.9486 62.2266 23.1477 62.5947 23.2808C62.7765 23.3503 63.0933 23.4144 63.5493 23.4691C64.0058 23.5286 64.3901 23.5633 64.7065 23.5729V24.6028ZM98.8178 24.6028H91.7604V23.6806C91.9857 23.6609 92.2261 23.6374 92.4823 23.6135C92.7378 23.5946 92.9473 23.5552 93.1132 23.5085C93.3883 23.4271 93.5932 23.2781 93.7286 23.0686C93.8641 22.8579 93.9389 22.5848 93.9343 22.2506L93.704 6.97168C93.702 6.79882 93.6229 6.30029 93.5276 5.95687C93.4844 5.80098 93.4377 5.67596 93.3933 5.62773C93.3466 5.57641 93.3308 5.52432 93.2652 5.46837C93.0117 5.2519 93.3266 5.55249 93.0897 5.35145C92.9334 5.21833 93.1541 5.30129 92.6853 5.20907C92.2203 5.11724 91.4417 5.32252 91.1561 5.30361L91.1307 4.29651L96.3934 4.02294L96.6438 4.22706L96.6643 22.0831C96.6643 22.4084 96.7268 22.675 96.8545 22.8861C96.9815 23.0952 97.1856 23.2596 97.4707 23.3692C97.6856 23.4653 97.8959 23.532 98.1062 23.5795C98.3173 23.6277 98.5569 23.6609 98.8178 23.6806V24.6028ZM132.748 24.6028H125.406V23.647C125.639 23.6277 125.879 23.6077 126.127 23.588C126.376 23.5679 126.59 23.5286 126.776 23.4691C127.056 23.385 127.268 23.2311 127.404 23.0134C127.545 22.7954 127.612 22.5134 127.612 22.1665V13.3303C127.612 12.9984 127.539 12.6963 127.388 12.4243C127.243 12.1468 127.035 11.92 126.776 11.7459C126.584 11.6321 126.355 11.548 126.091 11.4932C125.827 11.4388 125.542 11.4044 125.24 11.3844V10.4437L130.226 10.1218L130.439 10.3244V12.3402H130.511C130.755 12.1125 131.061 11.8301 131.424 11.5082C131.788 11.1861 132.136 10.9186 132.457 10.7165C132.836 10.4834 133.282 10.2897 133.795 10.1357C134.315 9.98255 134.895 9.90345 135.544 9.90345C136.981 9.90345 138.049 10.3341 138.745 11.1861C139.44 12.0434 139.781 13.1825 139.781 14.6032V22.0476C139.781 22.3887 139.845 22.6619 139.97 22.8699C140.089 23.0779 140.296 23.2411 140.592 23.3553C140.835 23.4541 141.043 23.5189 141.22 23.5575C141.396 23.5969 141.645 23.6277 141.956 23.647V24.6028H134.616V23.647C134.849 23.6277 135.108 23.6077 135.383 23.588C135.664 23.5679 135.891 23.5286 136.078 23.4691C136.358 23.385 136.571 23.2311 136.706 23.0134C136.845 22.7954 136.914 22.5134 136.914 22.1665V14.807C136.914 13.7914 136.659 13.0092 136.161 12.459C135.658 11.9092 135.045 11.6321 134.33 11.6321C133.791 11.6321 133.298 11.7112 132.851 11.8694C132.41 12.028 132.011 12.2259 131.668 12.459C131.336 12.6816 131.066 12.9197 130.869 13.1775C130.672 13.4348 130.527 13.6382 130.439 13.7914V22.0222C130.439 22.3494 130.506 22.6222 130.652 22.8352C130.792 23.0474 131.004 23.2114 131.29 23.3256C131.502 23.4248 131.73 23.4935 131.979 23.5436C132.229 23.5922 132.483 23.6277 132.748 23.647V24.6028ZM123.917 24.3404V24.3408V24.3404ZM118.615 16.6788C117.754 16.9211 116.996 17.1588 116.348 17.3915C115.7 17.6249 115.097 17.9116 114.543 18.2635C114.034 18.5911 113.634 18.982 113.338 19.4319C113.048 19.8783 112.897 20.4131 112.897 21.0321C112.897 21.8343 113.121 22.4285 113.562 22.8047C114.004 23.1813 114.564 23.37 115.237 23.37C115.959 23.37 116.592 23.2014 117.142 22.8699C117.687 22.5377 118.148 22.1422 118.521 21.6861L118.615 16.6788ZM86.9892 15.782C86.9892 15.2376 86.9425 14.6584 86.8437 14.0387C86.745 13.4202 86.5941 12.9051 86.3823 12.4891C86.1477 12.0434 85.8274 11.6815 85.4215 11.399C85.0182 11.117 84.4935 10.9781 83.8556 10.9781C82.7918 10.9781 81.9101 11.399 81.204 12.246C80.499 13.093 80.1201 14.2718 80.058 15.782H86.9892ZM167.891 15.782C167.891 15.2376 167.845 14.6584 167.746 14.0387C167.647 13.4202 167.497 12.9051 167.285 12.4891C167.05 12.0434 166.729 11.6815 166.325 11.399C165.92 11.117 165.396 10.9781 164.758 10.9781C163.694 10.9781 162.812 11.399 162.107 12.246C161.4 13.093 161.022 14.2718 160.959 15.782H167.891ZM64.2968 5.18901H61.7126V14.0241H63.7052C65.1005 14.0241 66.2685 13.5985 67.1957 12.7411C68.1307 11.8848 68.5972 10.7203 68.5976 9.24942C68.5976 8.00154 68.2237 7.01606 67.472 6.28331C66.7246 5.5548 65.6608 5.18901 64.2968 5.18901ZM105.989 4.64957C105.989 5.1948 105.804 5.67095 105.423 6.0788C105.047 6.48589 104.585 6.69232 104.029 6.69232C103.52 6.69232 103.072 6.4963 102.696 6.10813C102.321 5.72034 102.13 5.27274 102.13 4.77691C102.13 4.24674 102.321 3.78988 102.696 3.39707C103.072 3.00426 103.52 2.80786 104.029 2.80786C104.606 2.80786 105.073 2.9896 105.438 3.35849C105.804 3.73084 105.989 4.15799 105.989 4.64957Z" fill="#161616"/>
</svg>
