<svg width="160" height="49" viewBox="0 0 160 49" fill="none" xmlns="http://www.w3.org/2000/svg">
<g clip-path="url(#clip0_2085_4111)">
<path d="M27.1844 38.0883C24.6492 38.0883 22.4279 37.5319 20.5205 36.4192C18.6372 35.3065 17.1524 33.7704 16.0659 31.8111C15.0035 29.8275 14.4723 27.5416 14.4723 24.9533C14.4723 22.365 15.0035 20.0912 16.0659 18.1317C17.1524 16.1482 18.6372 14.6001 20.5205 13.4873C22.4279 12.3746 24.6492 11.8182 27.1844 11.8182C29.6954 11.8182 31.9046 12.3746 33.812 13.4873C35.7194 14.6001 37.2043 16.1482 38.2666 18.1317C39.329 20.0912 39.8602 22.365 39.8602 24.9533C39.8602 27.5416 39.329 29.8275 38.2666 31.8111C37.2043 33.7704 35.7194 35.3065 33.812 36.4192C31.9046 37.5319 29.6954 38.0883 27.1844 38.0883ZM27.1844 33.9156C29.5988 33.9156 31.5183 33.1174 32.9428 31.5208C34.3915 29.9242 35.1158 27.7351 35.1158 24.9533C35.1158 22.1714 34.3915 19.9823 32.9428 18.3858C31.5183 16.7892 29.5988 15.991 27.1844 15.991C24.7699 15.991 22.8384 16.7892 21.3897 18.3858C19.9411 19.9823 19.2167 22.1714 19.2167 24.9533C19.2167 27.7351 19.9411 29.9242 21.3897 31.5208C22.8384 33.1174 24.7699 33.9156 27.1844 33.9156ZM52.3193 38.0883C50.9672 38.0883 49.7841 37.8343 48.7701 37.3263C47.756 36.8183 46.935 36.1048 46.3073 35.1856L45.8003 37.6529H41.6716V11.528H46.3073V22.2319C46.8868 21.4337 47.6474 20.7322 48.589 20.1274C49.5548 19.5227 50.7982 19.2203 52.3193 19.2203C54.0094 19.2203 55.5184 19.6316 56.8463 20.454C58.1743 21.2765 59.2246 22.4013 59.9972 23.8285C60.7698 25.2557 61.1562 26.8763 61.1562 28.6906C61.1562 30.5049 60.7698 32.1255 59.9972 33.5527C59.2246 34.9557 58.1743 36.0685 56.8463 36.8909C55.5184 37.6892 54.0094 38.0883 52.3193 38.0883ZM51.3414 34.0244C52.8142 34.0244 54.0335 33.5285 54.9993 32.5367C55.9651 31.545 56.448 30.263 56.448 28.6906C56.448 27.1182 55.9651 25.8241 54.9993 24.8081C54.0335 23.7922 52.8142 23.2842 51.3414 23.2842C49.8445 23.2842 48.6131 23.7922 47.6474 24.8081C46.7057 25.7999 46.2348 27.082 46.2348 28.6543C46.2348 30.2266 46.7057 31.5208 47.6474 32.5367C48.6131 33.5285 49.8445 34.0244 51.3414 34.0244ZM67.0932 37.6529L60.5017 19.6557H65.3547L69.918 33.2624L74.4813 19.6557H79.3344L72.7068 37.6529H67.0932Z" fill="#161616"/>
<path d="M99.2656 38.0878C97.5272 38.0878 95.9579 37.6887 94.5575 36.8904C93.1813 36.0922 92.0827 34.9915 91.2617 33.5885C90.465 32.1613 90.0667 30.5164 90.0667 28.6538C90.0667 26.7912 90.4771 25.1584 91.298 23.7553C92.1189 22.3281 93.2175 21.2155 94.5937 20.4172C95.9941 19.6189 97.5635 19.2198 99.3019 19.2198C101.016 19.2198 102.562 19.6189 103.938 20.4172C105.338 21.2155 106.436 22.3281 107.233 23.7553C108.054 25.1584 108.465 26.7912 108.465 28.6538C108.465 30.5164 108.054 32.1613 107.233 33.5885C106.436 34.9915 105.338 36.0922 103.938 36.8904C102.537 37.6887 100.98 38.0878 99.2656 38.0878ZM99.2656 34.0602C100.473 34.0602 101.523 33.6127 102.416 32.7177C103.31 31.7985 103.756 30.4439 103.756 28.6538C103.756 26.8638 103.31 25.5213 102.416 24.6262C101.523 23.707 100.485 23.2474 99.3019 23.2474C98.0705 23.2474 97.0081 23.707 96.1148 24.6262C95.2456 25.5213 94.811 26.8638 94.811 28.6538C94.811 30.4439 95.2456 31.7985 96.1148 32.7177C97.0081 33.6127 98.0584 34.0602 99.2656 34.0602ZM127.748 19.6553V37.6524H123.655L123.294 34.6045C122.738 35.6689 121.929 36.5155 120.867 37.1444C119.829 37.7734 118.597 38.0878 117.173 38.0878C114.952 38.0878 113.225 37.3863 111.994 35.9833C110.762 34.5803 110.147 32.5242 110.147 29.8149V19.6553H114.782V29.3795C114.782 30.9277 115.096 32.113 115.724 32.9354C116.352 33.7579 117.33 34.169 118.658 34.169C119.961 34.169 121.024 33.7095 121.845 32.7903C122.69 31.8711 123.112 30.5889 123.112 28.9441V19.6553H127.748ZM137.722 38.0878C136.128 38.0878 134.728 37.8338 133.521 37.3258C132.313 36.7937 131.348 36.068 130.624 35.1488C129.899 34.2295 129.465 33.1652 129.32 31.9557H133.992C134.137 32.6573 134.523 33.2619 135.151 33.7699C135.802 34.2537 136.635 34.4956 137.65 34.4956C138.664 34.4956 139.4 34.29 139.858 33.8788C140.342 33.4676 140.584 32.9959 140.584 32.4637C140.584 31.6897 140.245 31.1696 139.569 30.9035C138.893 30.6132 137.951 30.335 136.744 30.0689C135.972 29.8996 135.187 29.694 134.39 29.4521C133.594 29.2102 132.857 28.9078 132.181 28.5449C131.529 28.1579 130.997 27.6742 130.588 27.0935C130.177 26.4888 129.972 25.751 129.972 24.8803C129.972 23.2837 130.6 21.9412 131.855 20.8526C133.134 19.7641 134.922 19.2198 137.215 19.2198C139.339 19.2198 141.03 19.7158 142.285 20.7075C143.565 21.6993 144.326 23.066 144.567 24.8076H140.185C139.919 23.4772 138.917 22.8119 137.178 22.8119C136.31 22.8119 135.633 22.9813 135.151 23.32C134.692 23.6586 134.462 24.0819 134.462 24.5899C134.462 25.1221 134.812 25.5454 135.513 25.8599C136.213 26.1744 137.142 26.4647 138.301 26.7307C139.558 27.021 140.704 27.3476 141.742 27.7104C142.804 28.0491 143.649 28.5692 144.277 29.2706C144.905 29.9479 145.218 30.9277 145.218 32.2097C145.243 33.3224 144.953 34.3264 144.35 35.2213C143.746 36.1163 142.877 36.8179 141.742 37.3258C140.608 37.8338 139.268 38.0878 137.722 38.0878Z" fill="#161616"/>
<path fill-rule="evenodd" clip-rule="evenodd" d="M87.5621 19.441H81.5033L82.5131 37.6515H86.5523L87.5621 19.441ZM84.5157 45.6466C86.0437 45.6466 87.2823 44.4057 87.2823 42.8749C87.2823 41.3441 86.0437 40.1032 84.5157 40.1032C82.9878 40.1032 81.7492 41.3441 81.7492 42.8749C81.7492 44.4057 82.9878 45.6466 84.5157 45.6466Z" fill="#161616"/>
</g>
<defs>
<clipPath id="clip0_2085_4111">
<rect width="158.539" height="48.5614" fill="white" transform="translate(0.7229 0.21933)"/>
</clipPath>
</defs>
</svg>
