<svg width="168" height="51" viewBox="0 0 168 51" fill="none" xmlns="http://www.w3.org/2000/svg">
<g clip-path="url(#clip0_2085_4116)">
<path fill-rule="evenodd" clip-rule="evenodd" d="M25.2696 5.37824V23.64L39.8453 12.1226C35.8582 7.79425 31.1219 5.59193 25.2696 5.37824ZM40.208 38.2473C38.576 36.4484 36.9548 34.6386 35.2969 32.8658C32.7215 30.1118 29.4834 29.0761 25.8805 30.3233C22.3445 31.5466 20.4513 34.366 20.3066 38.0947C20.2872 40.3733 20.285 42.6476 20.285 44.924C16.9196 44.1042 13.8304 42.4034 11.3155 39.9983C10.0785 38.7205 8.9819 37.2857 8.06228 35.7572C6.4972 33.1558 5.35955 30.1293 5.14799 27.0744C4.76374 21.501 6.4238 16.2459 10.1411 12.0811C12.7359 9.17451 16.4468 6.78249 20.2829 6.01931V21.5882C20.2829 21.9087 20.2764 22.2293 20.285 22.552C20.339 24.9723 20.665 27.1594 23.0417 28.3238C25.3084 29.4315 27.3117 28.5484 29.1488 27.0787C33.3756 23.6989 37.5743 20.2799 41.7817 16.8761C42.0472 16.6624 42.3128 16.4465 42.5761 16.2307C44.7478 19.6693 45.1601 24.3814 44.5838 28.3347C44.07 31.8671 42.6625 35.6132 40.208 38.2473ZM25.3494 45.4844C29.546 45.3972 33.2612 44.1216 36.6655 41.6467C34.9407 39.7235 33.2482 37.7654 31.4284 35.9294C30.3232 34.813 28.9049 34.5121 27.4175 34.9438C26.3165 35.2644 25.466 36.0712 25.4012 37.2704C25.2501 40.007 25.3322 42.7479 25.3494 45.4844ZM25.1638 0.454636C38.794 0.4699 49.687 11.7693 49.6784 25.476C49.6697 39.3136 38.6127 50.4298 24.9177 50.3928C10.942 50.3557 0.223918 39.1064 0.23903 25.0748C0.254141 11.3071 11.6717 0.439373 25.1638 0.454636Z" fill="#161616"/>
<path fill-rule="evenodd" clip-rule="evenodd" d="M159.759 12.2207C160.731 12.1837 161.695 12.2251 162.658 12.345C163.621 12.465 164.595 12.7005 165.586 13.0537C165.549 13.3677 165.529 13.5988 165.529 13.7471C165.529 13.8954 165.529 14.1221 165.529 14.4274C165.529 14.7327 165.521 15.195 165.501 15.8142C165.484 16.4335 165.437 17.3733 165.363 18.6315C164.776 18.3916 164.098 18.1692 163.33 17.9642C162.561 17.7614 161.855 17.6132 161.214 17.5194C160.847 17.4823 160.495 17.491 160.156 17.5477C159.817 17.6022 159.519 17.7331 159.263 17.9359C159.062 18.1387 159.029 18.3523 159.165 18.5748C159.304 18.7972 159.472 18.9716 159.675 19.1024L162.807 20.1295C163.468 20.3323 164.072 20.6201 164.621 20.9908C165.171 21.3615 165.646 21.791 166.05 22.2816C166.453 22.7722 166.768 23.313 166.997 23.9061C167.226 24.4992 167.341 25.1272 167.341 25.7944C167.36 26.7757 167.209 27.6588 166.887 28.446C166.566 29.2331 166.123 29.9178 165.555 30.5C164.988 31.0822 164.305 31.5554 163.509 31.9152C162.712 32.2771 161.847 32.5126 160.912 32.6238C160.784 32.6434 160.592 32.6565 160.335 32.6652C160.079 32.674 159.804 32.6783 159.511 32.6783C158.96 32.6958 158.429 32.6871 157.918 32.65C157.404 32.6129 156.938 32.5475 156.517 32.4559C156.022 32.3447 155.513 32.2052 154.99 32.0394C154.468 31.8737 153.794 31.6317 152.97 31.3177L154.289 25.3496C154.563 25.4412 154.839 25.5393 155.113 25.6418C155.388 25.7443 155.664 25.8511 155.938 25.9602L157.229 26.4312C157.65 26.5969 158.067 26.7539 158.479 26.9021C158.891 27.0504 159.336 27.1246 159.811 27.1246C160.104 27.1049 160.351 27.0373 160.553 26.9152C160.754 26.7953 160.873 26.5772 160.91 26.2633C160.91 26.0408 160.845 25.8424 160.718 25.6658C160.59 25.4914 160.428 25.3431 160.236 25.221C160.044 25.101 159.837 24.9986 159.619 24.9157C159.399 24.8328 159.189 24.7631 158.986 24.7085C158.125 24.5058 157.337 24.1678 156.622 23.6946C155.908 23.2236 155.29 22.6763 154.768 22.057C154.246 21.4378 153.833 20.7662 153.531 20.0444C153.229 19.3227 153.078 18.6009 153.078 17.8792C153.078 17.2861 153.16 16.7126 153.326 16.1587C153.49 15.6027 153.751 15.0903 154.11 14.6171C154.466 14.1461 154.915 13.7297 155.457 13.3677C155.996 13.0079 156.644 12.7332 157.393 12.55C158.22 12.3319 159.008 12.2207 159.759 12.2207Z" fill="#161616"/>
<path fill-rule="evenodd" clip-rule="evenodd" d="M145.471 19.7502C145.471 19.205 145.285 18.7428 144.912 18.3655C144.539 17.9883 144.083 17.8008 143.541 17.8008H142.198V21.7279H143.541C144.083 21.7279 144.539 21.5338 144.912 21.1479C145.285 20.7619 145.471 20.2953 145.471 19.7502ZM153.219 32.6871H146.898C146.058 31.4443 145.365 30.4499 144.815 29.7064C144.264 28.9628 143.817 28.4024 143.472 28.0252C143.127 27.648 142.87 27.4234 142.704 27.3471C142.535 27.2708 142.419 27.2817 142.354 27.3754C142.289 27.4692 142.257 27.6109 142.257 27.7984C142.257 27.986 142.257 28.1473 142.257 28.2781V32.685H136.383V12.2034H144.074C144.97 12.2034 145.851 12.4193 146.717 12.8532C147.584 13.2871 148.334 13.8322 148.968 14.4929C149.715 15.2452 150.268 16.1022 150.633 17.0638C150.995 18.0232 151.168 19.0044 151.151 20.0009C151.131 20.9996 150.922 21.983 150.523 22.9533C150.121 23.9237 149.549 24.7937 148.802 25.5656L153.219 32.6871Z" fill="#161616"/>
<path fill-rule="evenodd" clip-rule="evenodd" d="M135.531 26.756V32.687H121.463V12.2076H135.531V18.1386H127.337V19.9746H134.189V24.9462H127.337V26.756H135.531Z" fill="#161616"/>
<path fill-rule="evenodd" clip-rule="evenodd" d="M114.46 12.2076H120.955L115.476 32.687H108.247L102.768 12.2076H109.263L111.86 22.4473L114.46 12.2076Z" fill="#161616"/>
<path fill-rule="evenodd" clip-rule="evenodd" d="M98.8661 22.4211C98.8661 21.8215 98.7539 21.2589 98.5294 20.7334C98.3049 20.2079 98.0026 19.7522 97.627 19.3728C97.2492 18.9912 96.8002 18.6881 96.28 18.4613C95.7575 18.2346 95.2006 18.1212 94.6091 18.1212C94.0154 18.1212 93.4585 18.2346 92.9382 18.4613C92.418 18.6881 91.9625 18.9912 91.5761 19.3728C91.1897 19.7544 90.8831 20.2079 90.6586 20.7334C90.4341 21.2611 90.3219 21.8237 90.3219 22.4211C90.3219 23.0208 90.4341 23.5834 90.6586 24.1089C90.8831 24.6365 91.1897 25.0944 91.5761 25.4848C91.9625 25.8751 92.4158 26.1847 92.9382 26.4115C93.4607 26.6383 94.0176 26.7516 94.6091 26.7516C95.2028 26.7516 95.7597 26.6383 96.28 26.4115C96.8002 26.1847 97.2514 25.8751 97.627 25.4848C98.0048 25.0944 98.3049 24.6365 98.5294 24.1089C98.7539 23.5812 98.8661 23.0186 98.8661 22.4211ZM94.5271 12.2076C95.9281 12.2076 97.2449 12.4758 98.4776 13.01C99.708 13.5464 100.783 14.2769 101.701 15.2015C102.618 16.1282 103.341 17.2119 103.87 18.457C104.401 19.6999 104.664 21.03 104.664 22.4473C104.664 23.8646 104.399 25.1926 103.87 26.4376C103.339 27.6805 102.616 28.7664 101.701 29.691C100.783 30.6177 99.7102 31.3482 98.4776 31.8846C97.2471 32.421 95.9302 32.687 94.5271 32.687C93.126 32.687 91.8092 32.4188 90.5766 31.8846C89.3461 31.3482 88.2711 30.6177 87.3536 29.691C86.4361 28.7643 85.713 27.6805 85.1841 26.4376C84.653 25.1948 84.3896 23.8646 84.3896 22.4473C84.3896 21.03 84.6552 19.702 85.1841 18.457C85.7151 17.2141 86.4383 16.1282 87.3536 15.2015C88.2711 14.2747 89.3439 13.5443 90.5766 13.01C91.8071 12.4758 93.1239 12.2076 94.5271 12.2076Z" fill="#161616"/>
<path fill-rule="evenodd" clip-rule="evenodd" d="M83.5172 22.4211C83.5172 21.8215 83.405 21.2589 83.1804 20.7334C82.9559 20.2079 82.6537 19.7522 82.2781 19.3728C81.9003 18.9912 81.4513 18.6881 80.9311 18.4613C80.4086 18.2346 79.8517 18.1212 79.2602 18.1212C78.6665 18.1212 78.1096 18.2346 77.5893 18.4613C77.0669 18.6881 76.6136 18.9912 76.2272 19.3728C75.8408 19.7544 75.5342 20.2079 75.3097 20.7334C75.0852 21.2611 74.9729 21.8237 74.9729 22.4211C74.9729 23.0208 75.0852 23.5834 75.3097 24.1089C75.5342 24.6365 75.8408 25.0944 76.2272 25.4848C76.6136 25.8751 77.0669 26.1847 77.5893 26.4115C78.1096 26.6383 78.6687 26.7516 79.2602 26.7516C79.8538 26.7516 80.4108 26.6383 80.9311 26.4115C81.4535 26.1847 81.9025 25.8751 82.2781 25.4848C82.6559 25.0944 82.9559 24.6365 83.1804 24.1089C83.405 23.5812 83.5172 23.0186 83.5172 22.4211ZM79.176 12.2076C80.577 12.2076 81.8938 12.4758 83.1265 13.01C84.357 13.5464 85.432 14.2769 86.3473 15.2015C87.2648 16.1282 87.988 17.2119 88.519 18.457C89.0501 19.6999 89.3134 21.03 89.3134 22.4473C89.3134 23.8646 89.0479 25.1926 88.519 26.4376C87.988 27.6805 87.2648 28.7664 86.3473 29.691C85.4299 30.6177 84.357 31.3482 83.1265 31.8846C81.896 32.421 80.5792 32.687 79.176 32.687C77.775 32.687 76.4581 32.4188 75.2255 31.8846C73.995 31.3482 72.92 30.6177 72.0025 29.691C71.0851 28.7643 70.3619 27.6805 69.833 26.4376C69.3019 25.1948 69.0386 23.8646 69.0386 22.4473C69.0386 21.03 69.3041 19.702 69.833 18.457C70.364 17.2141 71.0872 16.1282 72.0025 15.2015C72.92 14.2747 73.9929 13.5443 75.2255 13.01C76.4581 12.4758 77.775 12.2076 79.176 12.2076Z" fill="#161616"/>
<path fill-rule="evenodd" clip-rule="evenodd" d="M72.0575 12.2079L66.8269 22.4323L72.0575 32.6873H65.4302L61.7085 25.4V32.6873H55.8368V12.2079H61.7085V19.4952L65.4302 12.2079H72.0575Z" fill="#161616"/>
<path d="M57.8083 41.3654V36.5748H56.2043V36.1452H59.8979V36.5748H58.294V41.3654H57.8083Z" fill="#161616"/>
<path d="M60.4468 41.3654V36.1452H60.885V38.1862C61.0232 37.9616 61.1959 37.7915 61.4009 37.676C61.606 37.5604 61.8435 37.5015 62.1133 37.5015C62.3616 37.5015 62.5839 37.5495 62.7804 37.6432C62.9768 37.737 63.1258 37.8678 63.2294 38.0336C63.2834 38.123 63.3222 38.2342 63.346 38.3628C63.3697 38.4936 63.3805 38.7291 63.3805 39.0715V41.3632H62.9423V39.078C62.9423 38.607 62.8753 38.293 62.7415 38.1339C62.6077 37.9747 62.3702 37.894 62.0291 37.894C61.6816 37.894 61.4031 38.0074 61.1959 38.232C60.9886 38.4566 60.885 38.7597 60.885 39.1413V41.3632H60.4468V41.3654Z" fill="#161616"/>
<path d="M64.5854 39.5644V39.5862C64.5854 40.0463 64.6955 40.4126 64.9157 40.6874C65.1359 40.9599 65.4295 41.0973 65.8008 41.0973C66.0922 41.0973 66.3383 41.0166 66.5348 40.8574C66.7312 40.6983 66.85 40.4802 66.8931 40.2033H67.3249C67.2774 40.5871 67.1155 40.8923 66.8327 41.1235C66.5521 41.3546 66.198 41.468 65.7727 41.468C65.2654 41.468 64.8682 41.2936 64.579 40.9468C64.2919 40.6001 64.1472 40.1183 64.1472 39.5012C64.1472 38.8732 64.2919 38.3826 64.5811 38.0315C64.8704 37.6804 65.2719 37.5038 65.7857 37.5038C66.2865 37.5038 66.6751 37.6717 66.9557 38.0097C67.2342 38.3455 67.3745 38.8165 67.3745 39.4227V39.5644H64.5854ZM64.5941 39.2133L66.9298 39.2177C66.9104 38.8012 66.8003 38.4763 66.5952 38.2387C66.3901 38.001 66.1181 37.8832 65.7792 37.8832C65.4381 37.8832 65.1597 38.0032 64.946 38.2452C64.7322 38.4851 64.6135 38.8078 64.5941 39.2133Z" fill="#161616"/>
<path d="M69.9016 39.7847H70.3743C70.3787 40.1968 70.5082 40.5151 70.7607 40.7419C71.0133 40.9687 71.3695 41.0821 71.8272 41.0821C72.2287 41.0821 72.546 40.9905 72.777 40.8073C73.008 40.6242 73.1224 40.3712 73.1224 40.0507C73.1224 39.752 73.0425 39.5252 72.8806 39.3704C72.7187 39.2134 72.3971 39.0738 71.9157 38.9495L71.4235 38.8252C70.8946 38.6879 70.5298 38.5134 70.3268 38.3019C70.1239 38.0904 70.0225 37.7938 70.0225 37.4101C70.0225 36.9871 70.1757 36.6491 70.4823 36.394C70.7888 36.1388 71.199 36.0102 71.7106 36.0102C72.2524 36.0102 72.6777 36.1497 72.9821 36.4288C73.2865 36.708 73.4441 37.0983 73.4505 37.5976H72.9691C72.9627 37.2269 72.8482 36.9413 72.6259 36.7385C72.4035 36.5357 72.0905 36.4354 71.689 36.4354C71.3091 36.4354 71.0176 36.5226 70.8082 36.6949C70.601 36.8671 70.4952 37.1114 70.4952 37.4253C70.4952 37.663 70.5621 37.8527 70.6981 37.9901C70.8341 38.1275 71.0587 38.2387 71.3717 38.3172L71.9761 38.4698C72.5719 38.6203 72.9907 38.8121 73.2325 39.0433C73.4743 39.2744 73.593 39.5928 73.593 40.0005C73.593 40.4693 73.4354 40.8378 73.1181 41.1061C72.8008 41.3764 72.3669 41.5094 71.8185 41.5094C71.2033 41.5094 70.7305 41.3634 70.3981 41.0712C70.0656 40.779 69.8994 40.3625 69.8994 39.8196V39.7847H69.9016Z" fill="#161616"/>
<path d="M74.4044 41.3655V37.5998H74.8081V38.2234C74.9333 37.9923 75.0974 37.8134 75.3003 37.6892C75.5032 37.5649 75.732 37.5038 75.9911 37.5038C76.2696 37.5038 76.5006 37.5692 76.684 37.6979C76.8675 37.8265 76.9906 38.0097 77.051 38.2452C77.1741 38.0053 77.3403 37.82 77.5432 37.6935C77.7483 37.5671 77.9836 37.5038 78.2491 37.5038C78.6528 37.5038 78.955 37.6063 79.1558 37.8113C79.3566 38.0162 79.4559 38.3259 79.4559 38.7424V41.3677H79.0176V38.7772C79.0176 38.4611 78.9572 38.2343 78.8363 38.0969C78.7154 37.9595 78.5147 37.8919 78.2362 37.8919C77.9059 37.8919 77.6425 37.9944 77.4439 38.1994C77.2453 38.4044 77.146 38.6748 77.146 39.0084V41.3677H76.7143V38.8208C76.7143 38.509 76.6495 38.2779 76.5221 38.1253C76.3948 37.9748 76.1962 37.8985 75.9306 37.8985C75.6047 37.8985 75.3392 38.0032 75.1384 38.2147C74.9355 38.424 74.8362 38.7009 74.8362 39.0411V41.3699H74.4044V41.3655Z" fill="#161616"/>
<path d="M82.8253 40.8183C82.6288 41.0341 82.4151 41.1933 82.1863 41.3002C81.9575 41.407 81.7114 41.4593 81.4459 41.4593C81.0702 41.4593 80.7702 41.359 80.5457 41.1606C80.3233 40.9622 80.2111 40.6983 80.2111 40.3669C80.2111 40.151 80.2629 39.9635 80.3643 39.8043C80.4658 39.643 80.6147 39.5165 80.809 39.4249C81.0314 39.3224 81.4027 39.2527 81.9208 39.2112C82.0222 39.2047 82.0978 39.1981 82.1496 39.1938C82.1798 39.1872 82.2208 39.1785 82.2727 39.1698C82.6288 39.0957 82.8059 38.9408 82.8059 38.7054C82.8059 38.4132 82.7346 38.2038 82.59 38.0774C82.4453 37.9509 82.21 37.8877 81.8798 37.8877C81.5452 37.8877 81.2883 37.9574 81.1112 38.0992C80.9342 38.2387 80.8371 38.448 80.8241 38.725L80.3989 38.7206C80.4075 38.3456 80.5457 38.049 80.809 37.8288C81.0724 37.6107 81.4307 37.5017 81.8798 37.5017C82.3266 37.5017 82.6655 37.5976 82.8965 37.7917C83.1275 37.9858 83.2441 38.2692 83.2441 38.6421V40.6983C83.2441 40.8532 83.2635 40.9513 83.3002 40.9883C83.3369 41.0254 83.4081 41.045 83.5118 41.045C83.5442 41.045 83.5722 41.045 83.596 41.0429C83.6197 41.0407 83.6434 41.0407 83.6694 41.0385V41.3634C83.6154 41.3743 83.5614 41.383 83.5074 41.3896C83.4535 41.3961 83.4038 41.3983 83.3607 41.3983C83.1836 41.3983 83.0498 41.3547 82.9613 41.2675C82.8728 41.1802 82.8274 41.0494 82.8274 40.8771V40.8183H82.8253ZM82.7972 39.3922C82.6828 39.4358 82.536 39.4685 82.3568 39.4947C82.1777 39.5209 81.8906 39.5448 81.4912 39.5645C81.2149 39.6386 81.0076 39.7411 80.8673 39.8763C80.727 40.0115 80.6558 40.1728 80.6558 40.3625C80.6558 40.5784 80.7313 40.7485 80.8824 40.8771C81.0335 41.0058 81.2386 41.069 81.4977 41.069C81.8927 41.069 82.2079 40.9665 82.4432 40.7594C82.6785 40.5522 82.7951 40.271 82.7951 39.9134V39.3922H82.7972Z" fill="#161616"/>
<path d="M84.249 41.3656V37.5998H84.6678V38.2562C84.7757 38.0032 84.9247 37.8135 85.1147 37.6892C85.3046 37.5649 85.5399 37.5017 85.8184 37.5017H85.868V37.9596H85.8119C85.4406 37.9596 85.1622 38.0708 84.9744 38.2932C84.7887 38.5156 84.6959 38.8471 84.6959 39.2897V41.3656H84.249Z" fill="#161616"/>
<path d="M87.0243 36.5182V37.5997H87.7151V37.9551H87.0243V40.7004C87.0243 40.8617 87.0437 40.9664 87.0847 41.0187C87.1236 41.0711 87.1948 41.0972 87.2984 41.0972C87.3438 41.0972 87.3934 41.0929 87.4495 41.0842C87.5057 41.0754 87.5942 41.058 87.7129 41.0318L87.7172 41.3785C87.6115 41.4069 87.5165 41.4265 87.4301 41.4396C87.3438 41.4527 87.2617 41.4592 87.184 41.4592C86.9681 41.4592 86.817 41.4047 86.7285 41.2935C86.64 41.1845 86.5947 40.9838 86.5947 40.696V37.9508H86.0852V37.5953H86.5947V36.5138H87.0243V36.5182Z" fill="#161616"/>
<path d="M88.6539 39.5644V39.5862C88.6539 40.0463 88.764 40.4126 88.9842 40.6874C89.2044 40.9599 89.498 41.0973 89.8693 41.0973C90.1607 41.0973 90.4068 41.0166 90.6032 40.8574C90.7997 40.6983 90.9184 40.4802 90.9616 40.2033H91.3933C91.3458 40.5871 91.1818 40.8923 90.9011 41.1235C90.6205 41.3546 90.2665 41.468 89.8412 41.468C89.3339 41.468 88.9367 41.2936 88.6474 40.9468C88.3603 40.6001 88.2157 40.1183 88.2157 39.5012C88.2157 38.8732 88.3603 38.3826 88.6496 38.0315C88.9389 37.6804 89.3404 37.5038 89.8542 37.5038C90.355 37.5038 90.7457 37.6717 91.0242 38.0097C91.3027 38.3455 91.443 38.8165 91.443 39.4227V39.5644H88.6539ZM88.6626 39.2133L90.9983 39.2177C90.9789 38.8012 90.8688 38.4763 90.6637 38.2387C90.4586 38.001 90.1866 37.8832 89.8477 37.8832C89.5066 37.8832 89.2281 38.0032 89.0144 38.2452C88.8007 38.4851 88.682 38.8078 88.6626 39.2133Z" fill="#161616"/>
<path d="M92.2106 41.3656V37.5998H92.6272V38.2562C92.7351 38.0032 92.8841 37.8135 93.0741 37.6892C93.264 37.5649 93.4993 37.5017 93.7778 37.5017H93.8275V37.9596H93.7713C93.4 37.9596 93.1216 38.0708 92.9337 38.2932C92.7481 38.5156 92.6553 38.8471 92.6553 39.2897V41.3656H92.2106Z" fill="#161616"/>
<path d="M96.423 41.3654V36.1452H99.8057V36.5748H96.8979V38.4784H99.5575V38.8927H96.8979V40.938H99.8942V41.3676H96.423V41.3654Z" fill="#161616"/>
<path d="M100.193 41.3655L101.501 39.4336L100.249 37.5976H100.789L101.766 39.1L102.727 37.5976H103.249L102.028 39.427L103.385 41.3655H102.841L101.771 39.7672L100.704 41.3655H100.193Z" fill="#161616"/>
<path d="M103.891 42.881V37.5977H104.33V38.2736C104.47 38.0119 104.647 37.8179 104.858 37.6914C105.072 37.5649 105.329 37.5017 105.631 37.5017C106.143 37.5017 106.547 37.6783 106.842 38.0316C107.138 38.3848 107.285 38.8689 107.285 39.486C107.285 40.1031 107.136 40.5871 106.838 40.9382C106.54 41.2893 106.132 41.4659 105.612 41.4659C105.325 41.4659 105.074 41.4026 104.865 41.2784C104.653 41.1541 104.476 40.9644 104.332 40.7114V42.881H103.891ZM104.31 39.486C104.31 39.9853 104.42 40.3756 104.643 40.6569C104.865 40.9382 105.171 41.0799 105.564 41.0799C105.97 41.0799 106.283 40.9426 106.503 40.6656C106.721 40.3887 106.832 39.9962 106.832 39.486C106.832 38.9757 106.721 38.5811 106.501 38.3041C106.281 38.0272 105.97 37.8877 105.564 37.8877C105.163 37.8877 104.852 38.025 104.634 38.302C104.418 38.5789 104.31 38.9736 104.31 39.486Z" fill="#161616"/>
<path d="M108.298 39.5644V39.5862C108.298 40.0463 108.408 40.4126 108.628 40.6874C108.848 40.9599 109.142 41.0973 109.513 41.0973C109.805 41.0973 110.051 41.0166 110.247 40.8574C110.444 40.6983 110.562 40.4802 110.606 40.2033H111.037C110.99 40.5871 110.828 40.8923 110.547 41.1235C110.267 41.3546 109.913 41.468 109.487 41.468C108.98 41.468 108.583 41.2936 108.294 40.9468C108.006 40.6001 107.862 40.1183 107.862 39.5012C107.862 38.8732 108.006 38.3826 108.296 38.0315C108.585 37.6804 108.987 37.5038 109.5 37.5038C110.001 37.5038 110.392 37.6717 110.67 38.0097C110.949 38.3455 111.089 38.8165 111.089 39.4227V39.5644H108.298ZM108.307 39.2133L110.642 39.2177C110.623 38.8012 110.513 38.4763 110.308 38.2387C110.103 38.001 109.831 37.8832 109.492 37.8832C109.151 37.8832 108.872 38.0032 108.658 38.2452C108.445 38.4851 108.326 38.8078 108.307 39.2133Z" fill="#161616"/>
<path d="M111.853 41.3656V37.5998H112.27V38.2562C112.377 38.0032 112.526 37.8135 112.716 37.6892C112.906 37.5649 113.142 37.5017 113.42 37.5017H113.47V37.9596H113.414C113.042 37.9596 112.764 38.0708 112.576 38.2932C112.39 38.5156 112.298 38.8471 112.298 39.2897V41.3656H111.853Z" fill="#161616"/>
<path d="M114.104 36.8016V36.1452H114.531V36.8016H114.104ZM114.104 41.3654V37.5996H114.531V41.3654H114.104Z" fill="#161616"/>
<path d="M115.793 39.5644V39.5862C115.793 40.0463 115.903 40.4126 116.123 40.6874C116.343 40.9599 116.637 41.0973 117.008 41.0973C117.3 41.0973 117.546 41.0166 117.742 40.8574C117.939 40.6983 118.057 40.4802 118.1 40.2033H118.532C118.485 40.5871 118.321 40.8923 118.04 41.1235C117.759 41.3546 117.405 41.468 116.98 41.468C116.473 41.468 116.076 41.2936 115.786 40.9468C115.499 40.6001 115.354 40.1183 115.354 39.5012C115.354 38.8732 115.499 38.3826 115.788 38.0315C116.078 37.6804 116.479 37.5038 116.993 37.5038C117.494 37.5038 117.885 37.6717 118.163 38.0097C118.441 38.3455 118.582 38.8165 118.582 39.4227V39.5644H115.793ZM115.799 39.2133L118.135 39.2177C118.116 38.8012 118.005 38.4763 117.8 38.2387C117.595 38.001 117.323 37.8832 116.984 37.8832C116.643 37.8832 116.365 38.0032 116.151 38.2452C115.937 38.4851 115.821 38.8078 115.799 39.2133Z" fill="#161616"/>
<path d="M119.346 41.3655V37.5998H119.762V38.2016C119.903 37.9704 120.075 37.796 120.282 37.6783C120.488 37.5605 120.727 37.5038 120.999 37.5038C121.256 37.5038 121.483 37.5496 121.677 37.6412C121.871 37.7328 122.02 37.8636 122.122 38.0337C122.176 38.1209 122.215 38.2277 122.238 38.3499C122.262 38.4741 122.273 38.6769 122.273 38.9604V39.0694V41.3611H121.828V39.0258C121.828 38.5832 121.761 38.2844 121.627 38.1274C121.494 37.9704 121.256 37.8919 120.917 37.8919C120.57 37.8919 120.293 38.0032 120.09 38.2277C119.887 38.4502 119.786 38.7554 119.786 39.1392V41.3611H119.346V41.3655Z" fill="#161616"/>
<path d="M125.785 40.0638H126.216C126.178 40.4956 126.018 40.8379 125.744 41.0865C125.467 41.3351 125.109 41.4593 124.666 41.4593C124.161 41.4593 123.764 41.2849 123.473 40.9338C123.181 40.585 123.037 40.1074 123.037 39.5056C123.037 38.882 123.183 38.3914 123.481 38.0359C123.777 37.6783 124.183 37.5017 124.697 37.5017C125.115 37.5017 125.459 37.6195 125.731 37.8571C126.001 38.0948 126.147 38.4066 126.167 38.7948H125.752C125.718 38.52 125.603 38.302 125.411 38.1362C125.219 37.9705 124.979 37.8877 124.697 37.8877C124.325 37.8877 124.03 38.0294 123.812 38.3129C123.594 38.5963 123.483 38.9823 123.483 39.4685C123.483 39.9679 123.594 40.3625 123.816 40.6525C124.036 40.9426 124.334 41.0886 124.705 41.0886C124.995 41.0886 125.236 40.9971 125.431 40.8161C125.621 40.6329 125.739 40.3843 125.785 40.0638Z" fill="#161616"/>
<path d="M127.181 39.5644V39.5862C127.181 40.0463 127.291 40.4126 127.511 40.6874C127.731 40.9599 128.025 41.0973 128.396 41.0973C128.688 41.0973 128.934 41.0166 129.13 40.8574C129.327 40.6983 129.445 40.4802 129.489 40.2033H129.92C129.873 40.5871 129.709 40.8923 129.428 41.1235C129.148 41.3546 128.793 41.468 128.368 41.468C127.861 41.468 127.464 41.2936 127.174 40.9468C126.887 40.6001 126.743 40.1183 126.743 39.5012C126.743 38.8732 126.887 38.3826 127.177 38.0315C127.466 37.6804 127.867 37.5038 128.381 37.5038C128.882 37.5038 129.273 37.6717 129.551 38.0097C129.83 38.3455 129.97 38.8165 129.97 39.4227V39.5644H127.181ZM127.187 39.2133L129.523 39.2177C129.504 38.8012 129.394 38.4763 129.189 38.2387C128.983 38.001 128.711 37.8832 128.373 37.8832C128.031 37.8832 127.753 38.0032 127.539 38.2452C127.326 38.4851 127.209 38.8078 127.187 39.2133Z" fill="#161616"/>
<path d="M132.692 36.8016V36.1452H133.119V36.8016H132.692ZM132.692 41.3654V37.5996H133.119V41.3654H132.692Z" fill="#161616"/>
<path d="M134.125 41.3655V37.5998H134.541V38.2016C134.682 37.9704 134.854 37.796 135.062 37.6783C135.267 37.5605 135.506 37.5038 135.778 37.5038C136.035 37.5038 136.262 37.5496 136.456 37.6412C136.65 37.7328 136.799 37.8636 136.901 38.0337C136.955 38.1209 136.994 38.2277 137.017 38.3499C137.041 38.4741 137.052 38.6769 137.052 38.9604V39.0694V41.3611H136.607V39.0258C136.607 38.5832 136.54 38.2844 136.406 38.1274C136.273 37.9704 136.035 37.8919 135.696 37.8919C135.349 37.8919 135.072 38.0032 134.869 38.2277C134.666 38.4502 134.565 38.7554 134.565 39.1392V41.3611H134.125V41.3655Z" fill="#161616"/>
<path d="M143.626 39.6602H144.092C144.053 40.2381 143.85 40.6916 143.487 41.0187C143.125 41.3458 142.637 41.5093 142.03 41.5093C141.335 41.5093 140.787 41.2629 140.385 40.7701C139.984 40.2773 139.783 39.6035 139.783 38.7444C139.783 37.894 139.986 37.2246 140.392 36.7383C140.798 36.2521 141.348 36.0079 142.045 36.0079C142.63 36.0079 143.103 36.1583 143.464 36.4592C143.824 36.7602 144.019 37.1635 144.044 37.6694H143.578C143.539 37.2857 143.382 36.9847 143.108 36.7645C142.833 36.5443 142.479 36.4331 142.045 36.4331C141.486 36.4331 141.052 36.6337 140.739 37.0371C140.429 37.4405 140.273 38.0052 140.273 38.7357C140.273 39.4705 140.431 40.0462 140.748 40.4605C141.065 40.877 141.504 41.0841 142.063 41.0841C142.518 41.0841 142.885 40.9576 143.162 40.7047C143.438 40.4561 143.593 40.1072 143.626 39.6602Z" fill="#161616"/>
<path d="M147.336 40.8183C147.139 41.0341 146.925 41.1933 146.697 41.3002C146.468 41.407 146.219 41.4593 145.956 41.4593C145.58 41.4593 145.28 41.359 145.056 41.1606C144.831 40.9622 144.721 40.6983 144.721 40.3669C144.721 40.151 144.773 39.9635 144.875 39.8043C144.976 39.643 145.125 39.5165 145.319 39.4249C145.542 39.3224 145.913 39.2527 146.431 39.2112C146.532 39.2047 146.608 39.1981 146.66 39.1938C146.69 39.1872 146.731 39.1785 146.783 39.1698C147.139 39.0957 147.316 38.9408 147.316 38.7054C147.316 38.4132 147.245 38.2038 147.1 38.0774C146.956 37.9509 146.72 37.8877 146.39 37.8877C146.055 37.8877 145.799 37.9574 145.622 38.0992C145.444 38.2387 145.347 38.448 145.334 38.725L144.909 38.7206C144.918 38.3456 145.056 38.049 145.319 37.8288C145.583 37.6107 145.941 37.5017 146.39 37.5017C146.837 37.5017 147.176 37.5976 147.407 37.7917C147.638 37.9858 147.754 38.2692 147.754 38.6421V40.6983C147.754 40.8532 147.774 40.9513 147.81 40.9883C147.847 41.0254 147.918 41.045 148.022 41.045C148.054 41.045 148.082 41.045 148.106 41.0429C148.13 41.0407 148.154 41.0407 148.18 41.0385V41.3634C148.126 41.3743 148.072 41.383 148.018 41.3896C147.964 41.3961 147.914 41.3983 147.871 41.3983C147.694 41.3983 147.56 41.3547 147.472 41.2675C147.383 41.1802 147.338 41.0494 147.338 40.8771V40.8183H147.336ZM147.307 39.3922C147.193 39.4358 147.046 39.4685 146.867 39.4947C146.688 39.5209 146.401 39.5448 146.001 39.5645C145.725 39.6386 145.518 39.7411 145.378 39.8763C145.237 40.0115 145.168 40.1728 145.168 40.3625C145.168 40.5784 145.244 40.7485 145.395 40.8771C145.546 41.0058 145.751 41.069 146.01 41.069C146.405 41.069 146.72 40.9665 146.956 40.7594C147.191 40.5522 147.307 40.271 147.307 39.9134V39.3922Z" fill="#161616"/>
<path d="M148.761 41.3656V37.5998H149.178V38.2562C149.286 38.0032 149.435 37.8135 149.625 37.6892C149.815 37.5649 150.05 37.5017 150.328 37.5017H150.378V37.9596H150.322C149.951 37.9596 149.672 38.0708 149.484 38.2932C149.299 38.5156 149.206 38.8471 149.206 39.2897V41.3656H148.761Z" fill="#161616"/>
<path d="M156.595 39.6604H157.061C157.023 40.2382 156.82 40.6917 156.457 41.0188C156.094 41.3459 155.606 41.5094 155 41.5094C154.305 41.5094 153.756 41.263 153.355 40.7702C152.953 40.2774 152.75 39.6037 152.75 38.7445C152.75 37.8941 152.953 37.2247 153.359 36.7385C153.765 36.2522 154.315 36.008 155.013 36.008C155.598 36.008 156.071 36.1585 156.431 36.4594C156.792 36.7603 156.986 37.1637 157.012 37.6695H156.545C156.507 37.2858 156.349 36.9849 156.075 36.7646C155.801 36.5444 155.447 36.4332 155.013 36.4332C154.454 36.4332 154.02 36.6338 153.707 37.0372C153.396 37.4406 153.24 38.0053 153.24 38.7358C153.24 39.4707 153.398 40.0463 153.715 40.4606C154.033 40.8771 154.471 41.0842 155.03 41.0842C155.485 41.0842 155.852 40.9578 156.129 40.7048C156.407 40.4562 156.563 40.1074 156.595 39.6604Z" fill="#161616"/>
<path d="M160.307 40.8183C160.11 41.0341 159.896 41.1933 159.668 41.3002C159.439 41.407 159.191 41.4593 158.927 41.4593C158.552 41.4593 158.251 41.359 158.027 41.1606C157.802 40.9622 157.692 40.6983 157.692 40.3669C157.692 40.151 157.744 39.9635 157.846 39.8043C157.947 39.643 158.096 39.5165 158.29 39.4249C158.513 39.3224 158.884 39.2527 159.402 39.2112C159.504 39.2047 159.579 39.1981 159.631 39.1938C159.661 39.1872 159.702 39.1785 159.754 39.1698C160.11 39.0957 160.287 38.9408 160.287 38.7054C160.287 38.4132 160.216 38.2038 160.071 38.0774C159.927 37.9509 159.691 37.8877 159.361 37.8877C159.026 37.8877 158.77 37.9574 158.593 38.0992C158.416 38.2387 158.318 38.448 158.305 38.725L157.88 38.7206C157.889 38.3456 158.027 38.049 158.29 37.8288C158.554 37.6107 158.912 37.5017 159.361 37.5017C159.808 37.5017 160.147 37.5976 160.378 37.7917C160.609 37.9858 160.725 38.2692 160.725 38.6421V40.6983C160.725 40.8532 160.745 40.9513 160.782 40.9883C160.818 41.0254 160.889 41.045 160.993 41.045C161.025 41.045 161.054 41.045 161.077 41.0429C161.101 41.0407 161.125 41.0407 161.151 41.0385V41.3634C161.097 41.3743 161.043 41.383 160.989 41.3896C160.935 41.3961 160.885 41.3983 160.842 41.3983C160.665 41.3983 160.531 41.3547 160.443 41.2675C160.354 41.1802 160.309 41.0494 160.309 40.8771V40.8183H160.307ZM160.279 39.3922C160.164 39.4358 160.017 39.4685 159.838 39.4947C159.659 39.5209 159.372 39.5448 158.973 39.5645C158.696 39.6386 158.489 39.7411 158.349 39.8763C158.208 40.0115 158.137 40.1728 158.137 40.3625C158.137 40.5784 158.213 40.7485 158.364 40.8771C158.515 41.0058 158.72 41.069 158.979 41.069C159.374 41.069 159.689 40.9665 159.925 40.7594C160.16 40.5522 160.276 40.271 160.276 39.9134V39.3922H160.279Z" fill="#161616"/>
<path d="M161.73 41.3656V37.5998H162.147V38.2562C162.255 38.0032 162.404 37.8135 162.594 37.6892C162.784 37.5649 163.019 37.5017 163.298 37.5017H163.347V37.9596H163.291C162.92 37.9596 162.641 38.0708 162.454 38.2932C162.268 38.5156 162.175 38.8471 162.175 39.2897V41.3656H161.73Z" fill="#161616"/>
<path d="M164.19 39.5644V39.5862C164.19 40.0463 164.3 40.4126 164.52 40.6874C164.741 40.9599 165.034 41.0973 165.405 41.0973C165.697 41.0973 165.943 41.0166 166.139 40.8574C166.336 40.6983 166.455 40.4802 166.498 40.2033H166.93C166.882 40.5871 166.72 40.8923 166.44 41.1235C166.159 41.3546 165.805 41.468 165.38 41.468C164.872 41.468 164.475 41.2936 164.186 40.9468C163.899 40.6001 163.754 40.1183 163.754 39.5012C163.754 38.8732 163.899 38.3826 164.188 38.0315C164.477 37.6804 164.879 37.5038 165.393 37.5038C165.893 37.5038 166.284 37.6717 166.563 38.0097C166.841 38.3455 166.981 38.8165 166.981 39.4227V39.5644H164.19ZM164.199 39.2133L166.534 39.2177C166.515 38.8012 166.405 38.4763 166.2 38.2387C165.995 38.001 165.723 37.8832 165.384 37.8832C165.043 37.8832 164.764 38.0032 164.551 38.2452C164.337 38.4851 164.218 38.8078 164.199 39.2133Z" fill="#161616"/>
</g>
<defs>
<clipPath id="clip0_2085_4116">
<rect width="167.086" height="49.9338" fill="white" transform="translate(0.261475 0.533112)"/>
</clipPath>
</defs>
</svg>
